FacadeStencil-Medium.ufo
<glyph name="ampersand" format="2">
  <advance width="800.0"/>
  <unicode hex="0026"/>
  <outline>
    <contour>
      <point x="604.0" y="0.0" type="line"/>
      <point x="771.0" y="0.0" type="line"/>
      <point x="679.0" y="125.5" type="line"/>
      <point x="718.0" y="165.0"/>
      <point x="747.5" y="211.5"/>
      <point x="768.5" y="263.0" type="curve"/>
      <point x="673.5" y="393.5" type="line"/>
      <point x="669.5" y="333.0"/>
      <point x="646.0" y="274.5"/>
      <point x="608.5" y="227.5" type="curve"/>
      <point x="324.0" y="620.5" type="line" smooth="yes"/>
      <point x="301.0" y="652.5"/>
      <point x="282.5" y="680.0"/>
      <point x="282.5" y="714.0" type="curve" smooth="yes"/>
      <point x="282.5" y="751.0"/>
      <point x="305.5" y="783.5"/>
      <point x="338.0" y="795.5" type="curve"/>
      <point x="338.0" y="913.0" type="line"/>
      <point x="233.5" y="900.0"/>
      <point x="149.0" y="814.5"/>
      <point x="149.0" y="702.5" type="curve" smooth="yes"/>
      <point x="149.0" y="635.0"/>
      <point x="179.5" y="587.0"/>
      <point x="214.0" y="540.5" type="curve" smooth="yes"/>
    </contour>
    <contour>
      <point x="370.5" y="-15.0" type="curve" smooth="yes"/>
      <point x="424.0" y="-15.0"/>
      <point x="478.5" y="-4.5"/>
      <point x="524.0" y="20.5" type="curve"/>
      <point x="449.0" y="124.0" type="line"/>
      <point x="430.5" y="114.5"/>
      <point x="408.0" y="110.0"/>
      <point x="383.5" y="110.0" type="curve" smooth="yes"/>
      <point x="268.5" y="110.0"/>
      <point x="204.5" y="187.5"/>
      <point x="204.5" y="278.5" type="curve" smooth="yes"/>
      <point x="204.5" y="332.0"/>
      <point x="227.5" y="369.5"/>
      <point x="253.5" y="395.5" type="curve"/>
      <point x="183.0" y="495.0" type="line"/>
      <point x="117.5" y="446.0"/>
      <point x="67.0" y="375.5"/>
      <point x="64.5" y="275.0" type="curve" smooth="yes"/>
      <point x="60.0" y="107.0"/>
      <point x="192.5" y="-15.0"/>
    </contour>
    <contour>
      <point x="466.0" y="516.0" type="line"/>
      <point x="515.0" y="544.0"/>
      <point x="594.0" y="599.0"/>
      <point x="594.0" y="703.5" type="curve" smooth="yes"/>
      <point x="594.0" y="813.0"/>
      <point x="507.0" y="899.0"/>
      <point x="402.0" y="913.0" type="curve"/>
      <point x="402.0" y="796.5" type="line"/>
      <point x="436.5" y="785.5"/>
      <point x="460.5" y="751.0"/>
      <point x="460.5" y="709.5" type="curve" smooth="yes"/>
      <point x="460.5" y="656.0"/>
      <point x="421.5" y="626.5"/>
      <point x="396.5" y="612.0" type="curve"/>
    </contour>
  </outline>
</glyph>
<glyph name="asterisk" format="2">
  <advance width="600.0"/>
  <unicode hex="002A"/>
  <outline>
    <contour>
      <point x="198.5" y="400.0" type="line"/>
      <point x="300.0" y="567.0" type="line"/>
      <point x="401.5" y="400.0" type="line"/>
      <point x="497.5" y="471.0" type="line"/>
      <point x="370.0" y="619.5" type="line"/>
      <point x="562.0" y="664.5" type="line"/>
      <point x="524.5" y="778.5" type="line"/>
      <point x="344.0" y="703.0" type="line"/>
      <point x="360.0" y="900.0" type="line"/>
      <point x="240.0" y="900.0" type="line"/>
      <point x="256.5" y="703.0" type="line"/>
      <point x="76.0" y="778.5" type="line"/>
      <point x="38.5" y="664.5" type="line"/>
      <point x="230.0" y="619.5" type="line"/>
      <point x="102.5" y="471.0" type="line"/>
    </contour>
  </outline>
</glyph>
<glyph name="plus" format="2">
  <advance width="750.0"/>
  <unicode hex="002B"/>
  <outline>
    <contour>
      <point x="315.0" y="130.0" type="line"/>
      <point x="435.0" y="130.0" type="line"/>
      <point x="435.0" y="770.0" type="line"/>
      <point x="315.0" y="770.0" type="line"/>
    </contour>
    <contour>
      <point x="55.0" y="393.0" type="line"/>
      <point x="695.0" y="393.0" type="line"/>
      <point x="695.0" y="507.0" type="line"/>
      <point x="55.0" y="507.0" type="line"/>
    </contour>
  </outline>
</glyph>
<glyph name="zero" format="2">
  <advance width="750.0"/>
  <unicode hex="0030"/>
  <outline>
    <contour>
      <point x="408.0" y="-14.5" type="line"/>
      <point x="606.0" y="6.5"/>
      <point x="699.0" y="233.5"/>
      <point x="699.0" y="450.0" type="curve" smooth="yes"/>
      <point x="699.0" y="666.5"/>
      <point x="606.0" y="893.5"/>
      <point x="408.0" y="914.5" type="curve"/>
      <point x="408.0" y="780.5" type="line"/>
      <point x="510.0" y="753.5"/>
      <point x="552.0" y="591.0"/>
      <point x="552.0" y="450.0" type="curve" smooth="yes"/>
      <point x="552.0" y="309.0"/>
      <point x="510.0" y="146.5"/>
      <point x="408.0" y="119.5" type="curve"/>
    </contour>
    <contour>
      <point x="342.0" y="-14.5" type="curve"/>
      <point x="342.0" y="119.5" type="line"/>
      <point x="240.5" y="146.5"/>
      <point x="198.0" y="309.0"/>
      <point x="198.0" y="450.0" type="curve" smooth="yes"/>
      <point x="198.0" y="591.0"/>
      <point x="240.5" y="753.5"/>
      <point x="342.0" y="780.5" type="curve"/>
      <point x="342.0" y="914.5" type="line"/>
      <point x="144.5" y="893.5"/>
      <point x="51.0" y="666.5"/>
      <point x="51.0" y="450.0" type="curve" smooth="yes"/>
      <point x="51.0" y="233.5"/>
      <point x="144.5" y="6.5"/>
    </contour>
  </outline>
</glyph>
<glyph name="one" format="2">
  <advance width="750.0"/>
  <unicode hex="0031"/>
  <outline>
    <contour>
      <point x="156.0" y="617.0" type="line"/>
      <point x="495.0" y="788.5" type="line"/>
      <point x="495.0" y="926.0" type="line"/>
      <point x="156.0" y="756.0" type="line"/>
    </contour>
    <contour>
      <point x="156.0" y="0.0" type="line"/>
      <point x="654.0" y="0.0" type="line"/>
      <point x="654.0" y="117.0" type="line"/>
      <point x="156.0" y="117.0" type="line"/>
    </contour>
    <contour>
      <point x="355.0" y="171.0" type="line"/>
      <point x="495.0" y="171.0" type="line"/>
      <point x="495.0" y="726.0" type="line"/>
      <point x="355.0" y="655.5" type="line"/>
    </contour>
  </outline>
</glyph>
<glyph name="five" format="2">
  <advance width="750.0"/>
  <unicode hex="0035"/>
  <outline>
    <contour>
      <point x="365.0" y="-15.0" type="line"/>
      <point x="525.5" y="-0.5"/>
      <point x="654.0" y="130.0"/>
      <point x="654.0" y="296.5" type="curve" smooth="yes"/>
      <point x="654.0" y="471.0"/>
      <point x="514.0" y="599.0"/>
      <point x="353.5" y="599.0" type="curve" smooth="yes"/>
      <point x="331.5" y="599.0"/>
      <point x="309.5" y="596.5"/>
      <point x="289.0" y="588.5" type="curve"/>
      <point x="289.0" y="900.0" type="line"/>
      <point x="168.0" y="900.0" type="line"/>
      <point x="168.0" y="401.5" type="line"/>
      <point x="206.0" y="447.0"/>
      <point x="263.5" y="477.0"/>
      <point x="327.0" y="477.0" type="curve" smooth="yes"/>
      <point x="430.5" y="477.0"/>
      <point x="515.0" y="400.5"/>
      <point x="515.0" y="297.5" type="curve" smooth="yes"/>
      <point x="515.0" y="206.0"/>
      <point x="449.5" y="133.0"/>
      <point x="365.0" y="118.5" type="curve"/>
    </contour>
    <contour>
      <point x="301.0" y="-15.0" type="curve"/>
      <point x="301.0" y="118.0" type="line"/>
      <point x="219.0" y="131.0"/>
      <point x="154.5" y="198.0"/>
      <point x="138.5" y="282.0" type="curve"/>
      <point x="60.0" y="127.0" type="line"/>
      <point x="111.5" y="47.5"/>
      <point x="200.0" y="-6.0"/>
    </contour>
    <contour>
      <point x="349.0" y="771.0" type="line"/>
      <point x="587.0" y="771.0" type="line"/>
      <point x="587.0" y="900.0" type="line"/>
      <point x="349.0" y="900.0" type="line"/>
    </contour>
  </outline>
</glyph>
<glyph name="six" format="2">
  <advance width="750.0"/>
  <unicode hex="0036"/>
  <outline>
    <contour>
      <point x="349.5" y="-15.0" type="curve"/>
      <point x="349.5" y="118.5" type="line"/>
      <point x="264.0" y="133.0"/>
      <point x="200.0" y="207.5"/>
      <point x="200.0" y="297.0" type="curve" smooth="yes"/>
      <point x="200.0" y="341.0"/>
      <point x="212.0" y="384.5"/>
      <point x="244.5" y="443.5" type="curve" smooth="yes"/>
      <point x="492.0" y="900.0" type="line"/>
      <point x="338.0" y="900.0" type="line"/>
      <point x="99.5" y="446.0" type="line" smooth="yes"/>
      <point x="74.5" y="398.0"/>
      <point x="60.0" y="347.5"/>
      <point x="60.0" y="293.5" type="curve" smooth="yes"/>
      <point x="60.0" y="129.5"/>
      <point x="185.5" y="-1.0"/>
    </contour>
    <contour>
      <point x="413.5" y="-15.0" type="line"/>
      <point x="577.0" y="0.0"/>
      <point x="702.0" y="129.5"/>
      <point x="702.0" y="295.0" type="curve" smooth="yes"/>
      <point x="702.0" y="473.0"/>
      <point x="564.5" y="593.0"/>
      <point x="396.5" y="598.5" type="curve"/>
      <point x="327.0" y="470.0" type="line"/>
      <point x="344.5" y="475.0"/>
      <point x="362.5" y="478.0"/>
      <point x="381.5" y="478.0" type="curve" smooth="yes"/>
      <point x="484.0" y="478.0"/>
      <point x="563.0" y="396.0"/>
      <point x="563.0" y="297.0" type="curve" smooth="yes"/>
      <point x="563.0" y="207.5"/>
      <point x="498.5" y="132.5"/>
      <point x="413.5" y="118.5" type="curve"/>
    </contour>
  </outline>
</glyph>
<glyph name="less" format="2">
  <advance width="750.0"/>
  <unicode hex="003C"/>
  <outline>
    <contour>
      <point x="669.0" y="143.0" type="line"/>
      <point x="669.0" y="270.5" type="line"/>
      <point x="399.0" y="400.0" type="line" smooth="yes"/>
      <point x="362.0" y="418.0"/>
      <point x="319.0" y="435.0"/>
      <point x="278.0" y="451.0" type="curve"/>
      <point x="319.0" y="468.0"/>
      <point x="362.0" y="485.0"/>
      <point x="399.0" y="503.0" type="curve" smooth="yes"/>
      <point x="669.0" y="633.5" type="line"/>
      <point x="669.0" y="759.0" type="line"/>
      <point x="42.0" y="451.0" type="line"/>
    </contour>
  </outline>
</glyph>
<glyph name="A" format="2">
  <advance width="810.0"/>
  <unicode hex="0041"/>
  <anchor x="405.0" y="0.0" name="bottom"/>
  <anchor x="675.5" y="0.0" name="ogonek"/>
  <anchor x="405.0" y="900.0" name="top"/>
  <anchor x="125.0" y="720.0" name="top-vertical"/>
  <outline>
    <contour>
      <point x="644.0" y="0.0" type="line"/>
      <point x="795.0" y="0.0" type="line"/>
      <point x="406.0" y="931.0" type="line"/>
      <point x="404.0" y="931.0" type="line"/>
      <point x="333.0" y="762.0" type="line"/>
    </contour>
    <contour>
      <point x="15.0" y="0.0" type="line"/>
      <point x="160.0" y="0.0" type="line"/>
      <point x="369.5" y="513.5" type="line"/>
      <point x="299.0" y="685.5" type="line"/>
    </contour>
    <contour>
      <point x="313.0" y="213.5" type="line"/>
      <point x="605.5" y="213.5" type="line"/>
      <point x="556.5" y="333.0" type="line"/>
      <point x="362.0" y="333.0" type="line"/>
    </contour>
  </outline>
</glyph>
<glyph name="B" format="2">
  <advance width="750.0"/>
  <unicode hex="0042"/>
  <outline>
    <contour>
      <point x="315.0" y="0.0" type="line"/>
      <point x="372.0" y="0.0" type="line" smooth="yes"/>
      <point x="584.0" y="0.0"/>
      <point x="696.0" y="149.5"/>
      <point x="696.0" y="298.0" type="curve" smooth="yes"/>
      <point x="696.0" y="425.5"/>
      <point x="613.0" y="529.5"/>
      <point x="495.5" y="568.0" type="curve"/>
      <point x="504.0" y="520.0" type="line"/>
      <point x="571.0" y="551.5"/>
      <point x="615.0" y="615.5"/>
      <point x="615.0" y="691.0" type="curve" smooth="yes"/>
      <point x="615.0" y="777.5"/>
      <point x="553.5" y="900.0"/>
      <point x="378.0" y="900.0" type="curve" smooth="yes"/>
      <point x="315.0" y="900.0" type="line"/>
      <point x="315.0" y="783.0" type="line"/>
      <point x="362.5" y="783.0" type="line" smooth="yes"/>
      <point x="429.5" y="783.0"/>
      <point x="477.0" y="748.5"/>
      <point x="477.0" y="683.0" type="curve" smooth="yes"/>
      <point x="477.0" y="619.5"/>
      <point x="429.5" y="585.0"/>
      <point x="358.5" y="585.0" type="curve" smooth="yes"/>
      <point x="315.0" y="585.0" type="line"/>
      <point x="315.0" y="474.0" type="line"/>
      <point x="359.0" y="474.0" type="line" smooth="yes"/>
      <point x="495.5" y="474.0"/>
      <point x="545.0" y="379.0"/>
      <point x="545.0" y="303.0" type="curve" smooth="yes"/>
      <point x="545.0" y="224.5"/>
      <point x="492.0" y="132.0"/>
      <point x="359.0" y="132.0" type="curve" smooth="yes"/>
      <point x="315.0" y="132.0" type="line"/>
    </contour>
    <contour>
      <point x="111.0" y="0.0" type="line"/>
      <point x="255.0" y="0.0" type="line"/>
      <point x="255.0" y="900.0" type="line"/>
      <point x="111.0" y="900.0" type="line"/>
    </contour>
  </outline>
</glyph>
<glyph name="C" format="2">
  <advance width="885.0"/>
  <unicode hex="0043"/>
  <anchor x="530.0" y="0.0" name="bottom"/>
  <anchor x="530.0" y="900.0" name="top"/>
  <outline>
    <contour>
      <point x="496.0" y="-17.0" type="curve"/>
      <point x="496.0" y="124.5" type="line"/>
      <point x="334.0" y="142.0"/>
      <point x="213.0" y="280.5"/>
      <point x="213.0" y="450.0" type="curve" smooth="yes"/>
      <point x="213.0" y="619.5"/>
      <point x="334.0" y="758.0"/>
      <point x="496.0" y="775.5" type="curve"/>
      <point x="496.0" y="917.0" type="line"/>
      <point x="251.0" y="901.0"/>
      <point x="57.0" y="698.5"/>
      <point x="57.0" y="450.0" type="curve" smooth="yes"/>
      <point x="57.0" y="201.5"/>
      <point x="251.0" y="-1.0"/>
    </contour>
    <contour>
      <point x="564.0" y="-17.0" type="line"/>
      <point x="672.0" y="-10.5"/>
      <point x="770.5" y="34.5"/>
      <point x="848.5" y="104.0" type="curve"/>
      <point x="806.5" y="278.0" type="line"/>
      <point x="755.0" y="194.0"/>
      <point x="667.5" y="132.5"/>
      <point x="564.0" y="124.0" type="curve"/>
    </contour>
    <contour>
      <point x="806.5" y="622.0" type="curve"/>
      <point x="848.5" y="796.0" type="line"/>
      <point x="771.0" y="866.0"/>
      <point x="671.5" y="910.5"/>
      <point x="564.0" y="917.0" type="curve"/>
      <point x="564.0" y="776.0" type="line"/>
      <point x="667.5" y="767.5"/>
      <point x="755.0" y="706.0"/>
    </contour>
  </outline>
</glyph>
<glyph name="F" format="2">
  <advance width="600.0"/>
  <unicode hex="0046"/>
  <outline>
    <contour>
      <point x="111.0" y="0.0" type="line"/>
      <point x="255.0" y="0.0" type="line"/>
      <point x="255.0" y="900.0" type="line"/>
      <point x="111.0" y="900.0" type="line"/>
    </contour>
    <contour>
      <point x="315.0" y="480.0" type="line"/>
      <point x="543.0" y="480.0" type="line"/>
      <point x="543.0" y="606.0" type="line"/>
      <point x="315.0" y="606.0" type="line"/>
    </contour>
    <contour>
      <point x="315.0" y="774.0" type="line"/>
      <point x="573.0" y="774.0" type="line"/>
      <point x="573.0" y="900.0" type="line"/>
      <point x="315.0" y="900.0" type="line"/>
    </contour>
  </outline>
</glyph>
<glyph name="M" format="2">
  <advance width="1060.0"/>
  <unicode hex="004D"/>
  <outline>
    <contour>
      <point x="530.5" y="146.5" type="line"/>
      <point x="949.0" y="722.5" type="line"/>
      <point x="949.0" y="930.0" type="line"/>
      <point x="534.5" y="375.5" type="line"/>
      <point x="111.0" y="930.0" type="line"/>
      <point x="111.0" y="707.0" type="line"/>
    </contour>
    <contour>
      <point x="111.0" y="0.0" type="line"/>
      <point x="249.0" y="0.0" type="line"/>
      <point x="249.0" y="423.5" type="line"/>
      <point x="111.0" y="607.0" type="line"/>
    </contour>
    <contour>
      <point x="805.0" y="0.0" type="line"/>
      <point x="949.0" y="0.0" type="line"/>
      <point x="949.0" y="622.5" type="line"/>
      <point x="805.0" y="425.5" type="line"/>
    </contour>
  </outline>
</glyph>
<glyph name="T" format="2">
  <advance width="700.0"/>
  <unicode hex="0054"/>
  <anchor x="350.0" y="0.0" name="bottom"/>
  <anchor x="350.0" y="450.0" name="center"/>
  <anchor x="350.0" y="900.0" name="top"/>
  <outline>
    <contour>
      <point x="45.0" y="768.0" type="line"/>
      <point x="655.0" y="768.0" type="line"/>
      <point x="655.0" y="900.0" type="line"/>
      <point x="45.0" y="900.0" type="line"/>
    </contour>
    <contour>
      <point x="275.0" y="0.0" type="line"/>
      <point x="425.0" y="0.0" type="line"/>
      <point x="425.0" y="714.0" type="line"/>
      <point x="275.0" y="714.0" type="line"/>
    </contour>
  </outline>
</glyph>
<glyph name="V" format="2">
  <advance width="760.0"/>
  <unicode hex="0056"/>
  <outline>
    <contour>
      <point x="379.0" y="-30.0" type="line"/>
      <point x="381.0" y="-30.0" type="line"/>
      <point x="456.5" y="158.5" type="line"/>
      <point x="164.0" y="900.0" type="line"/>
      <point x="9.0" y="900.0" type="line"/>
    </contour>
    <contour>
      <point x="489.0" y="242.0" type="line"/>
      <point x="751.0" y="900.0" type="line"/>
      <point x="604.0" y="900.0" type="line"/>
      <point x="417.5" y="424.0" type="line"/>
    </contour>
  </outline>
</glyph>
<glyph name="W" format="2">
  <advance width="1210.0"/>
  <unicode hex="0057"/>
  <anchor x="606.0" y="0.0" name="bottom"/>
  <anchor x="609.0" y="900.0" name="top"/>
  <outline>
    <contour>
      <point x="843.0" y="-31.0" type="line"/>
      <point x="913.0" y="149.0" type="line"/>
      <point x="609.0" y="930.0" type="line"/>
      <point x="412.5" y="421.0" type="line"/>
      <point x="478.0" y="253.0" type="line"/>
      <point x="565.0" y="483.5" type="line" smooth="yes"/>
      <point x="578.5" y="518.5"/>
      <point x="591.5" y="550.5"/>
      <point x="605.5" y="604.0" type="curve"/>
      <point x="619.0" y="550.5"/>
      <point x="632.5" y="518.0"/>
      <point x="646.0" y="483.0" type="curve" smooth="yes"/>
    </contour>
    <contour>
      <point x="367.5" y="-31.0" type="line"/>
      <point x="445.0" y="167.0" type="line"/>
      <point x="162.0" y="900.0" type="line"/>
      <point x="9.0" y="900.0" type="line"/>
    </contour>
    <contour>
      <point x="945.5" y="234.5" type="line"/>
      <point x="1201.0" y="900.0" type="line"/>
      <point x="1056.5" y="900.0" type="line"/>
      <point x="872.5" y="420.0" type="line"/>
    </contour>
  </outline>
</glyph>
<glyph name="underscore" format="2">
  <advance width="720.0"/>
  <unicode hex="005F"/>
  <outline>
    <contour>
      <point x="-6.0" y="-190.5" type="line"/>
      <point x="726.0" y="-190.5" type="line"/>
      <point x="726.0" y="-79.5" type="line"/>
      <point x="-6.0" y="-79.5" type="line"/>
    </contour>
  </outline>
</glyph>
<glyph name="a" format="2">
  <advance width="750.0"/>
  <unicode hex="0061"/>
  <anchor x="360.5" y="0.0" name="bottom"/>
  <anchor x="606.5" y="0.0" name="ogonek"/>
  <anchor x="365.5" y="600.0" name="top"/>
  <outline>
    <contour>
      <point x="344.5" y="-12.0" type="curve" smooth="yes"/>
      <point x="391.5" y="-12.0"/>
      <point x="435.0" y="-1.0"/>
      <point x="473.0" y="18.0" type="curve"/>
      <point x="473.0" y="152.0" type="line"/>
      <point x="442.0" y="127.5"/>
      <point x="404.5" y="113.5"/>
      <point x="362.0" y="113.5" type="curve" smooth="yes"/>
      <point x="261.0" y="113.5"/>
      <point x="180.0" y="197.0"/>
      <point x="180.0" y="300.0" type="curve" smooth="yes"/>
      <point x="180.0" y="403.0"/>
      <point x="261.0" y="486.5"/>
      <point x="362.0" y="486.5" type="curve" smooth="yes"/>
      <point x="404.0" y="486.5"/>
      <point x="442.0" y="472.5"/>
      <point x="473.0" y="448.0" type="curve"/>
      <point x="473.0" y="582.0" type="line"/>
      <point x="434.5" y="601.0"/>
      <point x="391.5" y="612.0"/>
      <point x="344.5" y="612.0" type="curve" smooth="yes"/>
      <point x="179.0" y="612.0"/>
      <point x="45.0" y="472.0"/>
      <point x="45.0" y="300.0" type="curve" smooth="yes"/>
      <point x="45.0" y="128.0"/>
      <point x="179.0" y="-12.0"/>
    </contour>
    <contour>
      <point x="533.0" y="0.0" type="line"/>
      <point x="669.0" y="0.0" type="line"/>
      <point x="669.0" y="600.0" type="line"/>
      <point x="533.0" y="600.0" type="line"/>
    </contour>
  </outline>
</glyph>
<glyph name="m" format="2">
  <advance width="1100.0"/>
  <unicode hex="006D"/>
  <anchor x="566.0" y="0.0" name="bottom"/>
  <anchor x="566.0" y="600.0" name="top"/>
  <outline>
    <contour>
      <point x="890.0" y="0.0" type="line"/>
      <point x="1031.0" y="0.0" type="line"/>
      <point x="1031.0" y="361.0" type="line" smooth="yes"/>
      <point x="1031.0" y="519.5"/>
      <point x="916.0" y="616.0"/>
      <point x="784.0" y="616.0" type="curve" smooth="yes"/>
      <point x="715.5" y="616.0"/>
      <point x="651.5" y="592.5"/>
      <point x="605.0" y="547.5" type="curve"/>
      <point x="603.5" y="586.0" type="line"/>
      <point x="641.0" y="546.0"/>
      <point x="669.0" y="493.0"/>
      <point x="680.5" y="430.0" type="curve"/>
      <point x="653.5" y="435.5" type="line"/>
      <point x="678.5" y="470.0"/>
      <point x="718.0" y="486.5"/>
      <point x="758.5" y="486.5" type="curve" smooth="yes"/>
      <point x="834.0" y="486.5"/>
      <point x="890.0" y="428.5"/>
      <point x="890.0" y="342.0" type="curve" smooth="yes"/>
    </contour>
    <contour>
      <point x="81.0" y="0.0" type="line"/>
      <point x="222.0" y="0.0" type="line"/>
      <point x="222.0" y="600.0" type="line"/>
      <point x="81.0" y="600.0" type="line"/>
    </contour>
    <contour>
      <point x="485.5" y="0.0" type="line"/>
      <point x="626.5" y="0.0" type="line"/>
      <point x="626.5" y="361.0" type="line" smooth="yes"/>
      <point x="626.5" y="519.5"/>
      <point x="519.0" y="616.0"/>
      <point x="393.5" y="616.0" type="curve" smooth="yes"/>
      <point x="354.0" y="616.0"/>
      <point x="316.0" y="606.5"/>
      <point x="282.0" y="588.0" type="curve"/>
      <point x="282.0" y="466.5" type="line"/>
      <point x="303.5" y="480.5"/>
      <point x="329.0" y="487.0"/>
      <point x="354.0" y="487.0" type="curve" smooth="yes"/>
      <point x="427.0" y="487.0"/>
      <point x="485.5" y="430.5"/>
      <point x="485.5" y="342.0" type="curve" smooth="yes"/>
    </contour>
  </outline>
</glyph>
<glyph name="o" format="2">
  <advance width="730.0"/>
  <unicode hex="006F"/>
  <anchor x="365.0" y="0.0" name="bottom"/>
  <anchor x="365.0" y="300.0" name="center"/>
  <anchor x="395.0" y="0.0" name="ogonek"/>
  <anchor x="365.0" y="600.0" name="top"/>
  <anchor x="525.0" y="600.0" name="topright"/>
  <outline>
    <contour>
      <point x="399.0" y="-15.0" type="line"/>
      <point x="560.0" y="0.0"/>
      <point x="685.0" y="135.0"/>
      <point x="685.0" y="300.0" type="curve" smooth="yes"/>
      <point x="685.0" y="465.0"/>
      <point x="560.0" y="600.0"/>
      <point x="399.0" y="615.0" type="curve"/>
      <point x="399.0" y="484.5" type="line"/>
      <point x="484.5" y="470.0"/>
      <point x="549.5" y="393.5"/>
      <point x="549.5" y="300.0" type="curve" smooth="yes"/>
      <point x="549.5" y="206.5"/>
      <point x="484.5" y="130.0"/>
      <point x="399.0" y="115.5" type="curve"/>
    </contour>
    <contour>
      <point x="331.0" y="-15.0" type="curve"/>
      <point x="331.0" y="115.5" type="line"/>
      <point x="244.5" y="130.0"/>
      <point x="180.5" y="206.5"/>
      <point x="180.5" y="300.0" type="curve" smooth="yes"/>
      <point x="180.5" y="393.5"/>
      <point x="244.5" y="470.0"/>
      <point x="331.0" y="484.5" type="curve"/>
      <point x="331.0" y="615.0" type="line"/>
      <point x="170.0" y="600.0"/>
      <point x="45.0" y="465.0"/>
      <point x="45.0" y="300.0" type="curve" smooth="yes"/>
      <point x="45.0" y="135.0"/>
      <point x="170.0" y="0.0"/>
    </contour>
  </outline>
</glyph>
<glyph name="q" format="2">
  <advance width="750.0"/>
  <unicode hex="0071"/>
  <outline>
    <contour>
      <point x="344.5" y="-12.0" type="curve" smooth="yes"/>
      <point x="391.5" y="-12.0"/>
      <point x="434.5" y="-1.0"/>
      <point x="473.0" y="18.0" type="curve"/>
      <point x="473.0" y="151.5" type="line"/>
      <point x="441.5" y="127.5"/>
      <point x="404.0" y="113.5"/>
      <point x="362.0" y="113.5" type="curve" smooth="yes"/>
      <point x="261.0" y="113.5"/>
      <point x="180.0" y="197.0"/>
      <point x="180.0" y="300.0" type="curve" smooth="yes"/>
      <point x="180.0" y="403.0"/>
      <point x="261.0" y="486.5"/>
      <point x="362.0" y="486.5" type="curve" smooth="yes"/>
      <point x="404.0" y="486.5"/>
      <point x="441.5" y="472.5"/>
      <point x="473.0" y="448.5" type="curve"/>
      <point x="473.0" y="582.0" type="line"/>
      <point x="434.5" y="601.0"/>
      <point x="391.5" y="612.0"/>
      <point x="344.5" y="612.0" type="curve" smooth="yes"/>
      <point x="179.0" y="612.0"/>
      <point x="45.0" y="472.0"/>
      <point x="45.0" y="300.0" type="curve" smooth="yes"/>
      <point x="45.0" y="128.0"/>
      <point x="179.0" y="-12.0"/>
    </contour>
    <contour>
      <point x="533.0" y="-300.0" type="line"/>
      <point x="669.0" y="-300.0" type="line"/>
      <point x="669.0" y="600.0" type="line"/>
      <point x="533.0" y="600.0" type="line"/>
    </contour>
  </outline>
</glyph>
<glyph name="s" format="2">
  <advance width="520.0"/>
  <unicode hex="0073"/>
  <anchor x="260.0" y="0.0" name="bottom"/>
  <anchor x="263.0" y="600.0" name="top"/>
  <outline>
    <contour>
      <point x="297.5" y="-13.0" type="line"/>
      <point x="402.5" y="1.5"/>
      <point x="473.0" y="73.5"/>
      <point x="473.0" y="173.0" type="curve" smooth="yes"/>
      <point x="473.0" y="292.0"/>
      <point x="378.0" y="329.5"/>
      <point x="322.0" y="350.5" type="curve" smooth="yes"/>
      <point x="242.5" y="380.5" type="line" smooth="yes"/>
      <point x="204.0" y="395.0"/>
      <point x="187.5" y="416.5"/>
      <point x="187.5" y="441.5" type="curve" smooth="yes"/>
      <point x="187.5" y="467.0"/>
      <point x="205.0" y="490.5"/>
      <point x="237.5" y="498.0" type="curve"/>
      <point x="237.5" y="614.5" type="line"/>
      <point x="127.5" y="602.0"/>
      <point x="62.5" y="522.5"/>
      <point x="62.5" y="431.0" type="curve" smooth="yes"/>
      <point x="62.5" y="320.0"/>
      <point x="153.0" y="281.0"/>
      <point x="204.0" y="261.5" type="curve" smooth="yes"/>
      <point x="286.5" y="230.0" type="line" smooth="yes"/>
      <point x="312.0" y="220.5"/>
      <point x="348.0" y="205.0"/>
      <point x="348.0" y="163.5" type="curve" smooth="yes"/>
      <point x="348.0" y="135.5"/>
      <point x="331.5" y="111.5"/>
      <point x="297.5" y="103.0" type="curve"/>
    </contour>
    <contour>
      <point x="237.5" y="-15.5" type="curve"/>
      <point x="237.5" y="101.0" type="line"/>
      <point x="177.0" y="110.5"/>
      <point x="121.0" y="150.0"/>
      <point x="88.5" y="200.0" type="curve"/>
      <point x="52.0" y="59.0" type="line"/>
      <point x="96.5" y="13.5"/>
      <point x="170.0" y="-11.5"/>
    </contour>
    <contour>
      <point x="422.0" y="407.5" type="curve"/>
      <point x="457.0" y="545.5" type="line"/>
      <point x="423.0" y="582.0"/>
      <point x="361.0" y="608.0"/>
      <point x="297.5" y="614.5" type="curve"/>
      <point x="297.5" y="497.0" type="line"/>
      <point x="344.0" y="486.0"/>
      <point x="390.5" y="454.0"/>
    </contour>
  </outline>
</glyph>
<glyph name="t" format="2">
  <advance width="450.0"/>
  <unicode hex="0074"/>
  <anchor x="220.0" y="0.0" name="bottom"/>
  <anchor x="220.0" y="300.0" name="center"/>
  <anchor x="220.0" y="800.0" name="top"/>
  <anchor x="294.0" y="1020.0" name="topright"/>
  <outline>
    <contour>
      <point x="27.0" y="486.0" type="line"/>
      <point x="423.0" y="486.0" type="line"/>
      <point x="423.0" y="600.0" type="line"/>
      <point x="287.5" y="600.0" type="line"/>
      <point x="287.5" y="800.0" type="line"/>
      <point x="152.5" y="800.0" type="line"/>
      <point x="152.5" y="600.0" type="line"/>
      <point x="27.0" y="600.0" type="line"/>
    </contour>
    <contour>
      <point x="149.5" y="0.0" type="line"/>
      <point x="290.5" y="0.0" type="line"/>
      <point x="290.5" y="432.0" type="line"/>
      <point x="149.5" y="432.0" type="line"/>
    </contour>
  </outline>
</glyph>
<glyph name="w" format="2">
  <advance width="1000.0"/>
  <unicode hex="0077"/>
  <anchor x="500.0" y="0.0" name="bottom"/>
  <anchor x="504.0" y="600.0" name="top"/>
  <outline>
    <contour>
      <point x="690.0" y="-30.0" type="line"/>
      <point x="751.5" y="98.5" type="line"/>
      <point x="504.0" y="624.0" type="line"/>
      <point x="363.0" y="318.0" type="line"/>
      <point x="425.0" y="187.0" type="line"/>
      <point x="500.0" y="353.0" type="line"/>
    </contour>
    <contour>
      <point x="310.0" y="-30.0" type="line"/>
      <point x="390.0" y="119.5" type="line"/>
      <point x="164.0" y="600.0" type="line"/>
      <point x="9.0" y="600.0" type="line"/>
    </contour>
    <contour>
      <point x="784.5" y="168.0" type="line"/>
      <point x="991.0" y="600.0" type="line"/>
      <point x="844.0" y="600.0" type="line"/>
      <point x="711.5" y="320.0" type="line"/>
    </contour>
  </outline>
</glyph>
<glyph name="z" format="2">
  <advance width="530.0"/>
  <unicode hex="007A"/>
  <anchor x="257.0" y="0.0" name="bottom"/>
  <anchor x="265.0" y="300.0" name="center"/>
  <anchor x="274.0" y="600.0" name="top"/>
  <outline>
    <contour>
      <point x="31.0" y="0.0" type="line"/>
      <point x="171.0" y="0.0" type="line"/>
      <point x="499.0" y="600.0" type="line"/>
      <point x="360.5" y="600.0" type="line"/>
    </contour>
    <contour>
      <point x="237.5" y="0.0" type="line"/>
      <point x="482.0" y="0.0" type="line"/>
      <point x="482.0" y="120.0" type="line"/>
      <point x="302.5" y="120.0" type="line"/>
    </contour>
    <contour>
      <point x="50.0" y="480.0" type="line"/>
      <point x="228.5" y="480.0" type="line"/>
      <point x="294.0" y="600.0" type="line"/>
      <point x="50.0" y="600.0" type="line"/>
    </contour>
  </outline>
</glyph>
<glyph name="exclamdown" format="2">
  <advance width="480.0"/>
  <unicode hex="00A1"/>
  <outline>
    <contour>
      <point x="162.0" y="-301.0" type="line"/>
      <point x="318.0" y="-301.0" type="line"/>
      <point x="297.0" y="284.0" type="line"/>
      <point x="183.0" y="284.0" type="line"/>
    </contour>
    <contour>
      <point x="240.0" y="435.0" type="curve" smooth="yes"/>
      <point x="290.5" y="435.0"/>
      <point x="330.0" y="474.5"/>
      <point x="330.0" y="525.0" type="curve" smooth="yes"/>
      <point x="330.0" y="575.5"/>
      <point x="290.5" y="615.0"/>
      <point x="240.0" y="615.0" type="curve" smooth="yes"/>
      <point x="189.0" y="615.0"/>
      <point x="150.0" y="575.5"/>
      <point x="150.0" y="525.0" type="curve" smooth="yes"/>
      <point x="150.0" y="474.5"/>
      <point x="189.0" y="435.0"/>
    </contour>
  </outline>
</glyph>
<glyph name="cent" format="2">
  <advance width="750.0"/>
  <unicode hex="00A2"/>
  <outline>
    <contour>
      <point x="106.0" y="480.0" type="curve"/>
      <point x="245.5" y="480.0" type="line"/>
      <point x="259.5" y="569.0"/>
      <point x="334.5" y="637.0"/>
      <point x="429.0" y="637.0" type="curve" smooth="yes"/>
      <point x="508.5" y="637.0"/>
      <point x="572.5" y="587.5"/>
      <point x="606.0" y="527.0" type="curve"/>
      <point x="645.0" y="683.5" type="line"/>
      <point x="587.5" y="735.5"/>
      <point x="511.0" y="766.0"/>
      <point x="426.0" y="766.0" type="curve" smooth="yes"/>
      <point x="258.5" y="766.0"/>
      <point x="122.0" y="640.5"/>
    </contour>
    <contour>
      <point x="372.0" y="0.0" type="line"/>
      <point x="468.0" y="0.0" type="line"/>
      <point x="468.0" y="180.0" type="line"/>
      <point x="372.0" y="180.0" type="line"/>
    </contour>
    <contour>
      <point x="426.0" y="134.0" type="curve" smooth="yes"/>
      <point x="511.0" y="134.0"/>
      <point x="587.5" y="164.5"/>
      <point x="645.0" y="216.5" type="curve"/>
      <point x="606.0" y="373.0" type="line"/>
      <point x="572.5" y="311.0"/>
      <point x="508.5" y="263.0"/>
      <point x="429.0" y="263.0" type="curve" smooth="yes"/>
      <point x="334.5" y="263.0"/>
      <point x="259.5" y="331.0"/>
      <point x="245.5" y="420.0" type="curve"/>
      <point x="106.0" y="420.0" type="line"/>
      <point x="122.0" y="259.5"/>
      <point x="258.5" y="134.0"/>
    </contour>
    <contour>
      <point x="372.0" y="720.0" type="line"/>
      <point x="468.0" y="720.0" type="line"/>
      <point x="468.0" y="870.0" type="line"/>
      <point x="372.0" y="870.0" type="line"/>
    </contour>
  </outline>
</glyph>
<glyph name="sterling" format="2">
  <advance width="750.0"/>
  <unicode hex="00A3"/>
  <outline>
    <contour>
      <point x="213.5" y="443.0" type="curve"/>
      <point x="350.0" y="443.0" type="line"/>
      <point x="340.0" y="498.0"/>
      <point x="331.0" y="552.0"/>
      <point x="331.0" y="596.5" type="curve" smooth="yes"/>
      <point x="331.0" y="695.5"/>
      <point x="371.5" y="758.5"/>
      <point x="432.0" y="779.5" type="curve"/>
      <point x="432.0" y="913.5" type="line"/>
      <point x="289.5" y="894.5"/>
      <point x="193.0" y="778.0"/>
      <point x="193.0" y="608.5" type="curve" smooth="yes"/>
      <point x="193.0" y="556.5"/>
      <point x="202.5" y="500.0"/>
    </contour>
    <contour>
      <point x="139.0" y="0.0" type="curve"/>
      <point x="293.5" y="0.0" type="line"/>
      <point x="358.5" y="125.5" type="line" smooth="yes"/>
      <point x="373.0" y="152.0"/>
      <point x="381.0" y="185.0"/>
      <point x="381.0" y="227.5" type="curve" smooth="yes"/>
      <point x="381.0" y="263.0"/>
      <point x="375.5" y="304.5"/>
      <point x="368.0" y="348.0" type="curve"/>
      <point x="233.5" y="348.0" type="line"/>
      <point x="242.5" y="301.0"/>
      <point x="249.0" y="256.5"/>
      <point x="249.0" y="216.5" type="curve" smooth="yes"/>
      <point x="249.0" y="123.5"/>
      <point x="210.5" y="75.5"/>
    </contour>
    <contour>
      <point x="365.5" y="0.0" type="line"/>
      <point x="669.0" y="0.0" type="line"/>
      <point x="669.0" y="126.0" type="line"/>
      <point x="430.5" y="126.0" type="line"/>
    </contour>
    <contour>
      <point x="90.0" y="402.0" type="line"/>
      <point x="600.0" y="402.0" type="line"/>
      <point x="600.0" y="498.0" type="line"/>
      <point x="90.0" y="498.0" type="line"/>
    </contour>
    <contour>
      <point x="635.0" y="677.0" type="curve"/>
      <point x="674.5" y="834.5" type="line"/>
      <point x="624.0" y="883.5"/>
      <point x="564.0" y="911.5"/>
      <point x="492.0" y="915.5" type="curve"/>
      <point x="492.0" y="786.5" type="line"/>
      <point x="556.0" y="780.5"/>
      <point x="604.5" y="734.0"/>
    </contour>
  </outline>
</glyph>
<glyph name="currency" format="2">
  <advance width="750.0"/>
  <unicode hex="00A4"/>
  <outline>
    <contour>
      <point x="631.0" y="112.0" type="line"/>
      <point x="713.5" y="194.5" type="line"/>
      <point x="637.0" y="271.0" type="line"/>
      <point x="673.0" y="321.5"/>
      <point x="694.0" y="383.5"/>
      <point x="694.0" y="450.0" type="curve" smooth="yes"/>
      <point x="694.0" y="517.5"/>
      <point x="672.5" y="580.0"/>
      <point x="636.0" y="631.0" type="curve"/>
      <point x="713.0" y="708.0" type="line"/>
      <point x="633.0" y="788.0" type="line"/>
      <point x="555.5" y="710.5" type="line"/>
      <point x="512.0" y="740.0"/>
      <point x="460.0" y="758.5"/>
      <point x="405.0" y="764.0" type="curve"/>
      <point x="405.0" y="633.5" type="line"/>
      <point x="492.5" y="619.0"/>
      <point x="559.0" y="542.5"/>
      <point x="559.0" y="450.0" type="curve" smooth="yes"/>
      <point x="559.0" y="357.5"/>
      <point x="492.5" y="281.0"/>
      <point x="405.0" y="266.5" type="curve"/>
      <point x="405.0" y="136.0" type="line"/>
      <point x="460.0" y="141.5"/>
      <point x="510.5" y="160.0"/>
      <point x="553.5" y="189.5" type="curve"/>
    </contour>
    <contour>
      <point x="117.0" y="112.0" type="line"/>
      <point x="194.5" y="189.5" type="line"/>
      <point x="238.0" y="160.5"/>
      <point x="289.5" y="141.5"/>
      <point x="345.0" y="136.0" type="curve"/>
      <point x="345.0" y="266.5" type="line"/>
      <point x="257.0" y="281.0"/>
      <point x="191.0" y="357.5"/>
      <point x="191.0" y="450.0" type="curve" smooth="yes"/>
      <point x="191.0" y="542.5"/>
      <point x="257.0" y="619.0"/>
      <point x="345.0" y="633.5" type="curve"/>
      <point x="345.0" y="764.0" type="line"/>
      <point x="290.5" y="758.5"/>
      <point x="239.5" y="739.5"/>
      <point x="197.0" y="711.0" type="curve"/>
      <point x="119.5" y="788.5" type="line"/>
      <point x="37.0" y="706.0" type="line"/>
      <point x="113.0" y="630.0" type="line"/>
      <point x="77.0" y="579.0"/>
      <point x="56.0" y="517.0"/>
      <point x="56.0" y="450.0" type="curve" smooth="yes"/>
      <point x="56.0" y="382.5"/>
      <point x="77.5" y="320.0"/>
      <point x="114.0" y="269.0" type="curve"/>
      <point x="37.0" y="192.0" type="line"/>
    </contour>
  </outline>
</glyph>
<glyph name="yen" format="2">
  <advance width="750.0"/>
  <unicode hex="00A5"/>
  <anchor x="53.0" y="900.0" name="topleft"/>
  <outline>
    <contour>
      <point x="255.0" y="513.5" type="line"/>
      <point x="495.0" y="513.5" type="line"/>
      <point x="713.0" y="900.0" type="line"/>
      <point x="558.0" y="900.5" type="line"/>
      <point x="430.0" y="668.0" type="line" smooth="yes"/>
      <point x="408.0" y="628.5"/>
      <point x="389.0" y="594.0"/>
      <point x="368.0" y="533.0" type="curve"/>
      <point x="391.5" y="533.0" type="line"/>
      <point x="372.0" y="593.0"/>
      <point x="352.0" y="629.5"/>
      <point x="331.0" y="668.0" type="curve" smooth="yes"/>
      <point x="204.0" y="900.0" type="line"/>
      <point x="37.0" y="900.0" type="line"/>
    </contour>
    <contour>
      <point x="301.5" y="0.0" type="line"/>
      <point x="448.5" y="0.0" type="line"/>
      <point x="448.5" y="252.0" type="line"/>
      <point x="301.5" y="252.0" type="line"/>
    </contour>
    <contour>
      <point x="81.0" y="306.0" type="line"/>
      <point x="669.0" y="306.0" type="line"/>
      <point x="669.0" y="402.0" type="line"/>
      <point x="81.0" y="402.0" type="line"/>
    </contour>
    <contour>
      <point x="81.0" y="498.0" type="line"/>
      <point x="669.0" y="498.0" type="line"/>
      <point x="669.0" y="594.0" type="line"/>
      <point x="451.0" y="594.0" type="line"/>
      <point x="382.5" y="532.5" type="line"/>
      <point x="303.0" y="594.0" type="line"/>
      <point x="81.0" y="594.0" type="line"/>
    </contour>
  </outline>
</glyph>
<glyph name="copyright" format="2">
  <advance width="1260.0"/>
  <unicode hex="00A9"/>
  <outline>
    <contour>
      <point x="662.0" y="-191.0" type="line"/>
      <point x="955.0" y="-176.0"/>
      <point x="1188.0" y="65.0"/>
      <point x="1188.0" y="360.0" type="curve" smooth="yes"/>
      <point x="1188.0" y="655.0"/>
      <point x="955.0" y="896.0"/>
      <point x="662.0" y="911.0" type="curve"/>
      <point x="662.0" y="800.0" type="line"/>
      <point x="890.5" y="785.0"/>
      <point x="1071.0" y="593.5"/>
      <point x="1071.0" y="360.0" type="curve" smooth="yes"/>
      <point x="1071.0" y="126.5"/>
      <point x="890.5" y="-65.0"/>
      <point x="662.0" y="-80.0" type="curve"/>
    </contour>
    <contour>
      <point x="598.0" y="-191.0" type="curve"/>
      <point x="598.0" y="-80.0" type="line"/>
      <point x="369.5" y="-64.5"/>
      <point x="189.0" y="126.5"/>
      <point x="189.0" y="360.0" type="curve" smooth="yes"/>
      <point x="189.0" y="593.5"/>
      <point x="369.5" y="784.0"/>
      <point x="598.0" y="800.0" type="curve"/>
      <point x="598.0" y="911.0" type="line"/>
      <point x="305.0" y="896.0"/>
      <point x="72.0" y="655.0"/>
      <point x="72.0" y="360.0" type="curve" smooth="yes"/>
      <point x="72.0" y="65.0"/>
      <point x="305.0" y="-176.0"/>
    </contour>
    <contour>
      <point x="613.0" y="79.0" type="curve"/>
      <point x="613.0" y="198.0" type="line"/>
      <point x="539.5" y="216.5"/>
      <point x="488.0" y="283.5"/>
      <point x="488.0" y="360.0" type="curve" smooth="yes"/>
      <point x="488.0" y="436.0"/>
      <point x="539.5" y="503.5"/>
      <point x="613.0" y="522.0" type="curve"/>
      <point x="613.0" y="640.5" type="line"/>
      <point x="469.0" y="621.5"/>
      <point x="361.0" y="502.0"/>
      <point x="361.0" y="360.0" type="curve" smooth="yes"/>
      <point x="361.0" y="217.5"/>
      <point x="470.0" y="98.5"/>
    </contour>
    <contour>
      <point x="673.0" y="79.0" type="line"/>
      <point x="741.5" y="83.0"/>
      <point x="803.5" y="109.0"/>
      <point x="851.0" y="151.5" type="curve"/>
      <point x="815.0" y="292.5" type="line"/>
      <point x="787.0" y="242.0"/>
      <point x="736.0" y="202.0"/>
      <point x="673.0" y="196.0" type="curve"/>
    </contour>
    <contour>
      <point x="815.0" y="427.0" type="curve"/>
      <point x="851.0" y="569.0" type="line"/>
      <point x="803.0" y="611.5"/>
      <point x="740.5" y="637.5"/>
      <point x="673.0" y="641.5" type="curve"/>
      <point x="673.0" y="524.0" type="line"/>
      <point x="736.0" y="517.5"/>
      <point x="787.0" y="476.5"/>
    </contour>
  </outline>
</glyph>
<glyph name="registered" format="2">
  <advance width="600.0"/>
  <unicode hex="00AE"/>
  <outline>
    <contour>
      <point x="330.0" y="399.5" type="line"/>
      <point x="466.0" y="413.0"/>
      <point x="571.0" y="524.5"/>
      <point x="571.0" y="660.0" type="curve" smooth="yes"/>
      <point x="571.0" y="795.5"/>
      <point x="466.0" y="907.0"/>
      <point x="330.0" y="920.5" type="curve"/>
      <point x="330.0" y="851.0" type="line"/>
      <point x="424.0" y="837.0"/>
      <point x="496.0" y="756.5"/>
      <point x="496.0" y="660.0" type="curve" smooth="yes"/>
      <point x="496.0" y="563.5"/>
      <point x="424.0" y="483.0"/>
      <point x="330.0" y="469.0" type="curve"/>
    </contour>
    <contour>
      <point x="270.0" y="399.5" type="curve"/>
      <point x="270.0" y="469.0" type="line"/>
      <point x="175.5" y="483.5"/>
      <point x="104.0" y="563.5"/>
      <point x="104.0" y="660.0" type="curve" smooth="yes"/>
      <point x="104.0" y="756.5"/>
      <point x="175.5" y="836.5"/>
      <point x="270.0" y="851.0" type="curve"/>
      <point x="270.0" y="920.5" type="line"/>
      <point x="133.5" y="906.5"/>
      <point x="29.0" y="795.5"/>
      <point x="29.0" y="660.0" type="curve" smooth="yes"/>
      <point x="29.0" y="524.5"/>
      <point x="133.5" y="413.5"/>
    </contour>
    <contour>
      <point x="206.0" y="546.0" type="line"/>
      <point x="272.0" y="546.0" type="line"/>
      <point x="272.0" y="786.0" type="line"/>
      <point x="206.0" y="786.0" type="line"/>
    </contour>
    <contour>
      <point x="344.0" y="546.0" type="line"/>
      <point x="419.0" y="546.0" type="line"/>
      <point x="362.5" y="626.5" type="line"/>
      <point x="391.0" y="640.5"/>
      <point x="408.0" y="666.5"/>
      <point x="408.0" y="700.0" type="curve" smooth="yes"/>
      <point x="408.0" y="743.5"/>
      <point x="376.5" y="780.5"/>
      <point x="323.0" y="785.5" type="curve"/>
      <point x="323.0" y="728.0" type="line"/>
      <point x="335.0" y="723.0"/>
      <point x="342.0" y="713.0"/>
      <point x="342.0" y="699.0" type="curve" smooth="yes"/>
      <point x="342.0" y="686.5"/>
      <point x="336.0" y="676.0"/>
      <point x="323.0" y="670.0" type="curve"/>
      <point x="323.0" y="576.5" type="line"/>
    </contour>
  </outline>
</glyph>
<glyph name="micro" format="2">
  <advance width="740.0"/>
  <unicode hex="00B5"/>
  <outline>
    <contour>
      <point x="358.0" y="-16.0" type="curve" smooth="yes"/>
      <point x="437.5" y="-16.0"/>
      <point x="508.5" y="31.0"/>
      <point x="540.5" y="119.5" type="curve"/>
      <point x="511.5" y="117.5" type="line"/>
      <point x="535.5" y="34.5"/>
      <point x="603.5" y="-12.0"/>
      <point x="691.0" y="-12.0" type="curve"/>
      <point x="718.5" y="104.0" type="line"/>
      <point x="670.5" y="104.0"/>
      <point x="641.0" y="127.0"/>
      <point x="641.0" y="189.5" type="curve" smooth="yes"/>
      <point x="641.0" y="600.0" type="line"/>
      <point x="500.0" y="600.0" type="line"/>
      <point x="500.0" y="264.5" type="line" smooth="yes"/>
      <point x="500.0" y="166.0"/>
      <point x="433.0" y="113.0"/>
      <point x="361.0" y="113.0" type="curve" smooth="yes"/>
      <point x="330.0" y="113.0"/>
      <point x="303.0" y="122.5"/>
      <point x="282.0" y="138.0" type="curve"/>
      <point x="282.0" y="0.5" type="line"/>
      <point x="305.5" y="-10.5"/>
      <point x="331.0" y="-16.0"/>
    </contour>
    <contour>
      <point x="81.0" y="-300.0" type="line"/>
      <point x="222.0" y="-300.0" type="line"/>
      <point x="222.0" y="600.0" type="line"/>
      <point x="81.0" y="600.0" type="line"/>
    </contour>
  </outline>
</glyph>
<glyph name="ordmasculine" format="2">
  <advance width="480.0"/>
  <unicode hex="00BA"/>
  <outline>
    <contour>
      <point x="268.0" y="407.0" type="line"/>
      <point x="368.0" y="421.0"/>
      <point x="442.0" y="502.5"/>
      <point x="442.0" y="600.0" type="curve" smooth="yes"/>
      <point x="442.0" y="697.5"/>
      <point x="368.0" y="779.0"/>
      <point x="268.0" y="793.0" type="curve"/>
      <point x="268.0" y="691.5" type="line"/>
      <point x="309.5" y="679.0"/>
      <point x="338.5" y="643.0"/>
      <point x="338.5" y="600.0" type="curve" smooth="yes"/>
      <point x="338.5" y="557.0"/>
      <point x="309.5" y="521.0"/>
      <point x="268.0" y="508.5" type="curve"/>
    </contour>
    <contour>
      <point x="212.0" y="407.0" type="curve"/>
      <point x="212.0" y="508.5" type="line"/>
      <point x="169.5" y="521.0"/>
      <point x="141.5" y="557.0"/>
      <point x="141.5" y="600.0" type="curve" smooth="yes"/>
      <point x="141.5" y="643.0"/>
      <point x="169.5" y="679.0"/>
      <point x="212.0" y="691.5" type="curve"/>
      <point x="212.0" y="793.0" type="line"/>
      <point x="112.0" y="779.0"/>
      <point x="38.0" y="697.5"/>
      <point x="38.0" y="600.0" type="curve" smooth="yes"/>
      <point x="38.0" y="502.5"/>
      <point x="112.0" y="421.0"/>
    </contour>
  </outline>
</glyph>
<glyph name="questiondown" format="2">
  <advance width="480.0"/>
  <unicode hex="00BF"/>
  <outline>
    <contour>
      <point x="159.0" y="-298.5" type="curve"/>
      <point x="159.0" y="-86.5" type="line" smooth="yes"/>
      <point x="159.0" y="26.0"/>
      <point x="297.0" y="89.5"/>
      <point x="297.0" y="284.0" type="curve"/>
      <point x="183.0" y="284.0" type="line"/>
      <point x="167.5" y="126.5"/>
      <point x="24.0" y="53.0"/>
      <point x="24.0" y="-101.5" type="curve" smooth="yes"/>
      <point x="24.0" y="-193.0"/>
      <point x="74.0" y="-268.0"/>
    </contour>
    <contour>
      <point x="256.5" y="-316.0" type="curve" smooth="yes"/>
      <point x="311.0" y="-316.0"/>
      <point x="361.5" y="-298.5"/>
      <point x="402.0" y="-268.5" type="curve"/>
      <point x="402.0" y="-116.5" type="line"/>
      <point x="372.0" y="-155.0"/>
      <point x="325.5" y="-188.0"/>
      <point x="268.0" y="-188.0" type="curve" smooth="yes"/>
      <point x="248.5" y="-188.0"/>
      <point x="231.0" y="-184.5"/>
      <point x="216.0" y="-178.0" type="curve"/>
      <point x="216.0" y="-312.5" type="line"/>
      <point x="230.5" y="-315.0"/>
      <point x="242.5" y="-316.0"/>
    </contour>
    <contour>
      <point x="240.0" y="435.0" type="curve" smooth="yes"/>
      <point x="290.5" y="435.0"/>
      <point x="330.0" y="474.5"/>
      <point x="330.0" y="525.0" type="curve" smooth="yes"/>
      <point x="330.0" y="575.5"/>
      <point x="290.5" y="615.0"/>
      <point x="240.0" y="615.0" type="curve" smooth="yes"/>
      <point x="189.0" y="615.0"/>
      <point x="150.0" y="575.5"/>
      <point x="150.0" y="525.0" type="curve" smooth="yes"/>
      <point x="150.0" y="474.5"/>
      <point x="189.0" y="435.0"/>
    </contour>
  </outline>
</glyph>
<glyph name="Eth" format="2">
  <advance width="950.0"/>
  <unicode hex="00D0"/>
  <outline>
    <contour>
      <point x="315.0" y="0.0" type="line"/>
      <point x="411.5" y="0.0" type="line" smooth="yes"/>
      <point x="718.0" y="0.0"/>
      <point x="893.0" y="220.5"/>
      <point x="893.0" y="450.0" type="curve" smooth="yes"/>
      <point x="893.0" y="679.5"/>
      <point x="718.0" y="900.0"/>
      <point x="411.5" y="900.0" type="curve" smooth="yes"/>
      <point x="315.0" y="900.0" type="line"/>
      <point x="315.0" y="768.0" type="line"/>
      <point x="397.5" y="768.0" type="line" smooth="yes"/>
      <point x="636.5" y="768.0"/>
      <point x="740.0" y="605.0"/>
      <point x="740.0" y="450.0" type="curve" smooth="yes"/>
      <point x="740.0" y="295.0"/>
      <point x="636.5" y="132.0"/>
      <point x="397.5" y="132.0" type="curve" smooth="yes"/>
      <point x="315.0" y="132.0" type="line"/>
    </contour>
    <contour>
      <point x="111.0" y="0.0" type="line"/>
      <point x="255.0" y="0.0" type="line"/>
      <point x="255.0" y="373.5" type="line"/>
      <point x="111.0" y="373.5" type="line"/>
    </contour>
    <contour>
      <point x="20.0" y="427.5" type="line"/>
      <point x="500.0" y="427.5" type="line"/>
      <point x="500.0" y="532.5" type="line"/>
      <point x="255.0" y="532.5" type="line"/>
      <point x="255.0" y="900.0" type="line"/>
      <point x="111.0" y="900.0" type="line"/>
      <point x="111.0" y="532.5" type="line"/>
      <point x="20.0" y="532.5" type="line"/>
    </contour>
  </outline>
</glyph>
<glyph name="Oslash" format="2">
  <advance width="1060.0"/>
  <unicode hex="00D8"/>
  <outline>
    <contour>
      <point x="205.5" y="-28.5" type="line"/>
      <point x="934.5" y="848.5" type="line"/>
      <point x="854.5" y="914.5" type="line"/>
      <point x="125.5" y="37.5" type="line"/>
    </contour>
    <contour>
      <point x="530.0" y="-18.0" type="curve" smooth="yes"/>
      <point x="791.5" y="-18.0"/>
      <point x="1003.0" y="191.0"/>
      <point x="1003.0" y="450.0" type="curve" smooth="yes"/>
      <point x="1003.0" y="553.5"/>
      <point x="969.5" y="648.5"/>
      <point x="912.5" y="726.0" type="curve"/>
      <point x="811.5" y="605.5" type="line"/>
      <point x="836.0" y="559.5"/>
      <point x="850.0" y="506.5"/>
      <point x="850.0" y="450.0" type="curve" smooth="yes"/>
      <point x="850.0" y="269.0"/>
      <point x="710.0" y="123.0"/>
      <point x="530.0" y="123.0" type="curve" smooth="yes"/>
      <point x="452.5" y="123.0"/>
      <point x="382.5" y="150.0"/>
      <point x="328.0" y="195.0" type="curve"/>
      <point x="234.5" y="84.0" type="line"/>
      <point x="316.0" y="20.0"/>
      <point x="418.5" y="-18.0"/>
    </contour>
    <contour>
      <point x="153.0" y="167.0" type="curve"/>
      <point x="252.0" y="286.5" type="line"/>
      <point x="225.5" y="334.0"/>
      <point x="210.0" y="390.5"/>
      <point x="210.0" y="450.0" type="curve" smooth="yes"/>
      <point x="210.0" y="631.0"/>
      <point x="350.0" y="777.0"/>
      <point x="530.0" y="777.0" type="curve" smooth="yes"/>
      <point x="611.5" y="777.0"/>
      <point x="684.5" y="747.5"/>
      <point x="740.5" y="698.0" type="curve"/>
      <point x="833.5" y="809.0" type="line"/>
      <point x="751.5" y="877.0"/>
      <point x="645.5" y="918.0"/>
      <point x="530.0" y="918.0" type="curve" smooth="yes"/>
      <point x="268.5" y="918.0"/>
      <point x="57.0" y="709.0"/>
      <point x="57.0" y="450.0" type="curve" smooth="yes"/>
      <point x="57.0" y="343.5"/>
      <point x="93.0" y="245.5"/>
    </contour>
  </outline>
</glyph>
<glyph name="eth" format="2">
  <advance width="730.0"/>
  <unicode hex="00F0"/>
  <anchor x="365.0" y="0.0" name="bottom"/>
  <anchor x="662.0" y="10.0" name="ogonek"/>
  <anchor x="365.0" y="600.0" name="top"/>
  <outline>
    <contour>
      <point x="397.0" y="-15.0" type="line"/>
      <point x="559.0" y="-1.0"/>
      <point x="685.0" y="132.0"/>
      <point x="685.0" y="310.0" type="curve" smooth="yes"/>
      <point x="685.0" y="399.5"/>
      <point x="654.0" y="491.0"/>
      <point x="587.0" y="594.5" type="curve" smooth="yes"/>
      <point x="561.0" y="634.0"/>
      <point x="517.5" y="693.5"/>
      <point x="463.5" y="765.5" type="curve"/>
      <point x="365.5" y="702.5" type="line"/>
      <point x="405.5" y="647.5"/>
      <point x="439.5" y="599.5"/>
      <point x="467.5" y="553.5" type="curve" smooth="yes"/>
      <point x="531.5" y="451.0"/>
      <point x="549.5" y="392.5"/>
      <point x="549.5" y="315.5" type="curve" smooth="yes"/>
      <point x="549.5" y="209.0"/>
      <point x="482.5" y="130.5"/>
      <point x="397.0" y="115.5" type="curve"/>
    </contour>
    <contour>
      <point x="333.0" y="-15.0" type="curve"/>
      <point x="333.0" y="115.5" type="line"/>
      <point x="247.0" y="130.0"/>
      <point x="180.5" y="207.0"/>
      <point x="180.5" y="300.5" type="curve" smooth="yes"/>
      <point x="180.5" y="403.5"/>
      <point x="262.0" y="487.0"/>
      <point x="361.5" y="487.0" type="curve" smooth="yes"/>
      <point x="394.5" y="487.0"/>
      <point x="425.0" y="479.0"/>
      <point x="451.5" y="465.0" type="curve"/>
      <point x="374.5" y="607.0" type="line"/>
      <point x="363.5" y="609.5"/>
      <point x="352.5" y="610.0"/>
      <point x="341.5" y="610.0" type="curve" smooth="yes"/>
      <point x="179.5" y="610.0"/>
      <point x="45.0" y="472.0"/>
      <point x="45.0" y="301.0" type="curve" smooth="yes"/>
      <point x="45.0" y="135.0"/>
      <point x="171.0" y="1.0"/>
    </contour>
    <contour>
      <point x="188.0" y="658.5" type="line"/>
      <point x="543.0" y="890.0" type="line"/>
      <point x="501.0" y="955.0" type="line"/>
      <point x="375.0" y="873.5" type="line"/>
      <point x="350.5" y="903.0"/>
      <point x="326.0" y="932.0"/>
      <point x="302.0" y="960.0" type="curve"/>
      <point x="148.0" y="960.0" type="line"/>
      <point x="192.0" y="909.5"/>
      <point x="235.5" y="859.5"/>
      <point x="276.5" y="809.5" type="curve"/>
      <point x="146.0" y="724.5" type="line"/>
    </contour>
  </outline>
</glyph>
<glyph name="dcroat" format="2">
  <advance width="750.0"/>
  <unicode hex="0111"/>
  <outline>
    <contour>
      <point x="345.0" y="-12.0" type="curve" smooth="yes"/>
      <point x="389.5" y="-12.0"/>
      <point x="431.0" y="-2.0"/>
      <point x="468.0" y="15.5" type="curve"/>
      <point x="468.0" y="148.5" type="line"/>
      <point x="437.5" y="126.5"/>
      <point x="401.5" y="113.5"/>
      <point x="362.0" y="113.5" type="curve" smooth="yes"/>
      <point x="261.0" y="113.5"/>
      <point x="180.0" y="197.0"/>
      <point x="180.0" y="300.0" type="curve" smooth="yes"/>
      <point x="180.0" y="403.0"/>
      <point x="261.0" y="486.5"/>
      <point x="362.0" y="486.5" type="curve" smooth="yes"/>
      <point x="401.5" y="486.5"/>
      <point x="438.0" y="473.5"/>
      <point x="468.0" y="451.5" type="curve"/>
      <point x="468.0" y="584.5" type="line"/>
      <point x="431.0" y="602.0"/>
      <point x="389.5" y="612.0"/>
      <point x="345.0" y="612.0" type="curve" smooth="yes"/>
      <point x="179.0" y="612.0"/>
      <point x="45.0" y="472.0"/>
      <point x="45.0" y="300.0" type="curve" smooth="yes"/>
      <point x="45.0" y="128.0"/>
      <point x="179.0" y="-12.0"/>
    </contour>
    <contour>
      <point x="528.0" y="0.0" type="line"/>
      <point x="669.0" y="0.0" type="line"/>
      <point x="669.0" y="682.0" type="line"/>
      <point x="528.0" y="682.0" type="line"/>
    </contour>
    <contour>
      <point x="332.5" y="736.0" type="line"/>
      <point x="730.5" y="736.0" type="line"/>
      <point x="730.5" y="824.0" type="line"/>
      <point x="669.0" y="824.0" type="line"/>
      <point x="669.0" y="960.0" type="line"/>
      <point x="537.0" y="960.0" type="line"/>
      <point x="537.0" y="824.0" type="line"/>
      <point x="332.5" y="824.0" type="line"/>
    </contour>
  </outline>
</glyph>
<glyph name="eogonek" format="2">
  <advance width="700.0"/>
  <unicode hex="0119"/>
  <anchor x="355.0" y="600.0" name="top"/>
  <outline>
    <contour>
      <point x="346.0" y="-15.0" type="curve"/>
      <point x="346.0" y="109.0" type="line"/>
      <point x="246.5" y="123.5"/>
      <point x="179.0" y="203.0"/>
      <point x="179.0" y="304.0" type="curve"/>
      <point x="171.5" y="304.0" type="line"/>
      <point x="171.5" y="403.0"/>
      <point x="234.5" y="482.0"/>
      <point x="322.5" y="497.0" type="curve"/>
      <point x="322.5" y="615.0" type="line"/>
      <point x="165.5" y="600.0"/>
      <point x="45.0" y="471.0"/>
      <point x="45.0" y="306.0" type="curve" smooth="yes"/>
      <point x="45.0" y="131.5"/>
      <point x="168.5" y="-1.5"/>
    </contour>
    <contour>
      <point x="282.0" y="259.5" type="curve" smooth="yes"/>
      <point x="661.0" y="259.5" type="line"/>
      <point x="661.0" y="312.0" type="line" smooth="yes"/>
      <point x="661.0" y="475.0"/>
      <point x="541.5" y="600.5"/>
      <point x="384.5" y="615.0" type="curve"/>
      <point x="384.5" y="497.0" type="line"/>
      <point x="472.0" y="482.0"/>
      <point x="534.5" y="407.0"/>
      <point x="534.5" y="307.0" type="curve"/>
      <point x="560.0" y="353.5" type="line"/>
      <point x="520.0" y="363.0"/>
      <point x="480.0" y="367.5"/>
      <point x="434.5" y="367.5" type="curve" smooth="yes"/>
      <point x="282.0" y="367.5" type="line" smooth="yes"/>
      <point x="230.0" y="367.5"/>
      <point x="180.0" y="359.5"/>
      <point x="128.0" y="347.5" type="curve"/>
      <point x="128.0" y="279.5" type="line"/>
      <point x="180.0" y="267.5"/>
      <point x="230.0" y="259.5"/>
    </contour>
    <contour>
      <point x="410.0" y="-15.0" type="line"/>
      <point x="480.5" y="-9.5"/>
      <point x="545.0" y="15.0"/>
      <point x="597.0" y="55.0" type="curve"/>
      <point x="563.0" y="194.5" type="line"/>
      <point x="528.5" y="150.0"/>
      <point x="474.5" y="116.0"/>
      <point x="410.0" y="108.5" type="curve"/>
    </contour>
    <contour>
      <point x="550.5" y="-315.0" type="curve"/>
      <point x="576.5" y="-204.5" type="line"/>
      <point x="528.0" y="-204.0"/>
      <point x="492.5" y="-180.5"/>
      <point x="492.5" y="-125.0" type="curve" smooth="yes"/>
      <point x="492.5" y="-93.5"/>
      <point x="504.0" y="-63.5"/>
      <point x="535.0" y="-19.5" type="curve"/>
      <point x="547.0" y="-36.5" type="line"/>
      <point x="493.5" y="-59.0"/>
      <point x="433.5" y="-71.0"/>
      <point x="371.5" y="-69.5" type="curve"/>
      <point x="401.5" y="-44.0" type="line"/>
      <point x="377.5" y="-81.5"/>
      <point x="367.5" y="-118.0"/>
      <point x="367.5" y="-153.0" type="curve" smooth="yes"/>
      <point x="367.5" y="-260.0"/>
      <point x="449.0" y="-315.0"/>
    </contour>
  </outline>
</glyph>
<glyph name="Hbar" format="2">
  <advance width="800.0"/>
  <unicode hex="0126"/>
  <anchor x="400.0" y="0.0" name="bottom"/>
  <anchor x="400.0" y="720.0" name="center"/>
  <anchor x="400.0" y="900.0" name="top"/>
  <anchor x="126.0" y="900.0" name="topleft"/>
  <outline>
    <contour>
      <point x="545.0" y="0.0" type="line"/>
      <point x="689.0" y="0.0" type="line"/>
      <point x="689.0" y="618.5" type="line"/>
      <point x="545.0" y="618.5" type="line"/>
      <point x="545.0" y="561.0" type="line"/>
      <point x="315.0" y="561.0" type="line"/>
      <point x="315.0" y="429.0" type="line"/>
      <point x="545.0" y="429.0" type="line"/>
    </contour>
    <contour>
      <point x="111.0" y="0.0" type="line"/>
      <point x="255.0" y="0.0" type="line"/>
      <point x="255.0" y="618.5" type="line"/>
      <point x="111.0" y="618.5" type="line"/>
    </contour>
    <contour>
      <point x="30.0" y="672.0" type="line"/>
      <point x="770.0" y="672.0" type="line"/>
      <point x="770.0" y="768.0" type="line"/>
      <point x="689.0" y="768.0" type="line"/>
      <point x="689.0" y="900.0" type="line"/>
      <point x="545.0" y="900.0" type="line"/>
      <point x="545.0" y="768.0" type="line"/>
      <point x="255.0" y="768.0" type="line"/>
      <point x="255.0" y="900.0" type="line"/>
      <point x="111.0" y="900.0" type="line"/>
      <point x="111.0" y="768.0" type="line"/>
      <point x="30.0" y="768.0" type="line"/>
    </contour>
  </outline>
</glyph>
<glyph name="idotless" format="2">
  <advance width="305.0"/>
  <unicode hex="0131"/>
  <anchor x="152.5" y="0.0" name="bottom"/>
  <anchor x="152.5" y="0.0" name="ogonek"/>
  <anchor x="152.5" y="600.0" name="top"/>
  <outline>
    <contour>
      <point x="82.0" y="0.0" type="line"/>
      <point x="223.0" y="0.0" type="line"/>
      <point x="223.0" y="600.0" type="line"/>
      <point x="82.0" y="600.0" type="line"/>
    </contour>
  </outline>
</glyph>
<glyph name="kgreenlandic" format="2">
  <advance width="650.0"/>
  <unicode hex="0138"/>
  <anchor x="346.0" y="0.0" name="bottom"/>
  <anchor x="300.0" y="600.0" name="top"/>
  <outline>
    <contour>
      <point x="476.0" y="0.0" type="line"/>
      <point x="647.0" y="0.0" type="line"/>
      <point x="357.5" y="370.5" type="line"/>
      <point x="344.5" y="296.0" type="line"/>
      <point x="587.0" y="600.0" type="line"/>
      <point x="431.0" y="600.0" type="line"/>
      <point x="282.0" y="410.0" type="line"/>
      <point x="282.0" y="249.5" type="line"/>
    </contour>
    <contour>
      <point x="81.0" y="0.0" type="line"/>
      <point x="219.0" y="0.0" type="line"/>
      <point x="219.0" y="600.0" type="line"/>
      <point x="81.0" y="600.0" type="line"/>
    </contour>
  </outline>
</glyph>
<glyph name="lslash" format="2">
  <advance width="365.0"/>
  <unicode hex="0142"/>
  <outline>
    <contour>
      <point x="30.0" y="332.0" type="line"/>
      <point x="373.5" y="558.0" type="line"/>
      <point x="329.0" y="628.0" type="line"/>
      <point x="253.0" y="578.0" type="line"/>
      <point x="253.0" y="960.0" type="line"/>
      <point x="112.0" y="960.0" type="line"/>
      <point x="112.0" y="485.0" type="line"/>
      <point x="-14.5" y="402.0" type="line"/>
    </contour>
    <contour>
      <point x="112.0" y="0.0" type="line"/>
      <point x="253.0" y="0.0" type="line"/>
      <point x="253.0" y="401.5" type="line"/>
      <point x="112.0" y="309.0" type="line"/>
    </contour>
  </outline>
</glyph>
<glyph name="Eng" format="2">
  <advance width="990.0"/>
  <unicode hex="014A"/>
  <anchor x="495.0" y="0.0" name="bottom"/>
  <anchor x="495.0" y="900.0" name="top"/>
  <outline>
    <contour>
      <point x="696.0" y="-174.0" type="line"/>
      <point x="775.5" y="-141.0"/>
      <point x="834.0" y="-66.0"/>
      <point x="834.0" y="60.5" type="curve" smooth="yes"/>
      <point x="834.0" y="168.5" type="line"/>
      <point x="111.0" y="930.0" type="line"/>
      <point x="111.0" y="718.0" type="line"/>
      <point x="696.0" y="102.0" type="line"/>
    </contour>
    <contour>
      <point x="581.5" y="-196.0" type="curve" smooth="yes"/>
      <point x="598.5" y="-196.0"/>
      <point x="616.0" y="-194.0"/>
      <point x="632.0" y="-190.5" type="curve"/>
      <point x="632.0" y="-46.5" type="line"/>
      <point x="614.0" y="-56.5"/>
      <point x="593.5" y="-61.0"/>
      <point x="571.5" y="-61.0" type="curve" smooth="yes"/>
      <point x="516.5" y="-61.0"/>
      <point x="472.0" y="-32.0"/>
      <point x="444.0" y="14.0" type="curve"/>
      <point x="404.0" y="-130.0" type="line"/>
      <point x="449.0" y="-176.5"/>
      <point x="516.5" y="-196.0"/>
    </contour>
    <contour>
      <point x="111.0" y="0.0" type="line"/>
      <point x="249.0" y="0.0" type="line"/>
      <point x="249.0" y="494.5" type="line"/>
      <point x="111.0" y="639.5" type="line"/>
    </contour>
    <contour>
      <point x="834.0" y="249.5" type="line"/>
      <point x="834.0" y="900.0" type="line"/>
      <point x="696.0" y="900.0" type="line"/>
      <point x="696.0" y="394.0" type="line"/>
    </contour>
  </outline>
</glyph>
<glyph name="oe" format="2">
  <advance width="1175.0"/>
  <unicode hex="0153"/>
  <anchor x="587.5" y="0.0" name="bottom"/>
  <anchor x="587.5" y="600.0" name="top"/>
  <outline>
    <contour>
      <point x="334.0" y="-15.0" type="curve"/>
      <point x="334.0" y="115.5" type="line"/>
      <point x="246.0" y="130.0"/>
      <point x="180.5" y="207.0"/>
      <point x="180.5" y="300.0" type="curve" smooth="yes"/>
      <point x="180.5" y="393.5"/>
      <point x="246.0" y="470.0"/>
      <point x="333.5" y="484.5" type="curve"/>
      <point x="333.5" y="615.0" type="line"/>
      <point x="171.5" y="599.5"/>
      <point x="45.0" y="465.0"/>
      <point x="45.0" y="300.0" type="curve" smooth="yes"/>
      <point x="45.0" y="135.0"/>
      <point x="171.5" y="0.5"/>
    </contour>
    <contour>
      <point x="544.5" y="259.5" type="curve"/>
      <point x="658.5" y="259.5" type="line"/>
      <point x="655.5" y="273.5"/>
      <point x="654.0" y="288.5"/>
      <point x="654.0" y="304.0" type="curve"/>
      <point x="646.5" y="304.0" type="line"/>
      <point x="646.5" y="402.5"/>
      <point x="709.5" y="481.0"/>
      <point x="797.0" y="496.5" type="curve"/>
      <point x="797.0" y="614.5" type="line"/>
      <point x="718.5" y="606.5"/>
      <point x="649.0" y="569.0"/>
      <point x="599.5" y="514.0" type="curve"/>
      <point x="548.0" y="570.0"/>
      <point x="477.0" y="607.5"/>
      <point x="396.0" y="615.0" type="curve"/>
      <point x="396.0" y="484.5" type="line"/>
      <point x="483.5" y="470.0"/>
      <point x="549.5" y="393.5"/>
      <point x="549.5" y="300.0" type="curve" smooth="yes"/>
      <point x="549.5" y="286.0"/>
      <point x="547.5" y="272.5"/>
    </contour>
    <contour>
      <point x="603.0" y="259.5" type="line"/>
      <point x="1136.0" y="259.5" type="line"/>
      <point x="1136.0" y="312.0" type="line" smooth="yes"/>
      <point x="1136.0" y="475.0"/>
      <point x="1016.5" y="600.5"/>
      <point x="859.5" y="615.0" type="curve"/>
      <point x="859.5" y="497.0" type="line"/>
      <point x="947.0" y="482.0"/>
      <point x="1009.5" y="407.0"/>
      <point x="1009.5" y="307.0" type="curve"/>
      <point x="1035.0" y="353.5" type="line"/>
      <point x="995.0" y="363.0"/>
      <point x="955.0" y="367.5"/>
      <point x="909.5" y="367.5" type="curve" smooth="yes"/>
      <point x="757.0" y="367.5" type="line" smooth="yes"/>
      <point x="705.0" y="367.5"/>
      <point x="655.0" y="359.5"/>
      <point x="603.0" y="347.5" type="curve"/>
    </contour>
    <contour>
      <point x="396.0" y="-15.0" type="line"/>
      <point x="478.0" y="-7.5"/>
      <point x="551.0" y="31.0"/>
      <point x="602.5" y="88.5" type="curve"/>
      <point x="655.0" y="31.0"/>
      <point x="731.0" y="-7.0"/>
      <point x="821.5" y="-14.5" type="curve"/>
      <point x="821.5" y="110.0" type="line"/>
      <point x="758.0" y="119.5"/>
      <point x="707.0" y="155.0"/>
      <point x="679.5" y="205.5" type="curve"/>
      <point x="522.5" y="205.5" type="line"/>
      <point x="496.5" y="158.0"/>
      <point x="450.5" y="124.0"/>
      <point x="396.0" y="115.5" type="curve"/>
    </contour>
    <contour>
      <point x="885.0" y="-15.0" type="line"/>
      <point x="955.5" y="-9.5"/>
      <point x="1020.0" y="15.0"/>
      <point x="1072.0" y="55.0" type="curve"/>
      <point x="1038.0" y="194.5" type="line"/>
      <point x="1003.5" y="150.0"/>
      <point x="949.5" y="116.0"/>
      <point x="885.0" y="108.5" type="curve"/>
    </contour>
  </outline>
</glyph>
<glyph name="Schwa" format="2">
  <advance width="1050.0"/>
  <unicode hex="018F"/>
  <outline>
    <contour>
      <point x="488.0" y="-17.0" type="curve"/>
      <point x="488.0" y="121.0" type="line"/>
      <point x="323.5" y="136.5"/>
      <point x="199.0" y="277.5"/>
      <point x="199.0" y="450.0" type="curve"/>
      <point x="145.0" y="396.0" type="line"/>
      <point x="724.0" y="396.0" type="line" smooth="yes"/>
      <point x="781.0" y="396.0"/>
      <point x="839.0" y="404.0"/>
      <point x="896.0" y="416.0" type="curve"/>
      <point x="896.0" y="502.0" type="line"/>
      <point x="839.0" y="514.0"/>
      <point x="781.0" y="522.0"/>
      <point x="724.0" y="522.0" type="curve" smooth="yes"/>
      <point x="49.0" y="522.0" type="line"/>
      <point x="49.0" y="452.5" type="line" smooth="yes"/>
      <point x="49.0" y="201.5"/>
      <point x="243.0" y="-1.5"/>
    </contour>
    <contour>
      <point x="241.0" y="624.0" type="line"/>
      <point x="293.0" y="707.0"/>
      <point x="379.5" y="768.0"/>
      <point x="488.0" y="778.0" type="curve"/>
      <point x="488.0" y="917.0" type="line"/>
      <point x="375.5" y="910.5"/>
      <point x="276.0" y="865.5"/>
      <point x="199.0" y="796.0" type="curve"/>
    </contour>
    <contour>
      <point x="552.0" y="-17.0" type="line"/>
      <point x="798.5" y="-2.0"/>
      <point x="993.0" y="201.0"/>
      <point x="993.0" y="450.0" type="curve" smooth="yes"/>
      <point x="993.0" y="699.0"/>
      <point x="798.5" y="902.0"/>
      <point x="552.0" y="917.0" type="curve"/>
      <point x="552.0" y="778.0" type="line"/>
      <point x="717.5" y="763.0"/>
      <point x="843.0" y="622.5"/>
      <point x="843.0" y="450.0" type="curve" smooth="yes"/>
      <point x="843.0" y="277.5"/>
      <point x="717.5" y="136.5"/>
      <point x="552.0" y="121.0" type="curve"/>
    </contour>
  </outline>
</glyph>
<glyph name="Ohorn" format="2">
  <advance width="1060.0"/>
  <unicode hex="01A0"/>
  <anchor x="530.0" y="0.0" name="bottom"/>
  <anchor x="530.0" y="0.0" name="ogonek"/>
  <anchor x="530.0" y="900.0" name="top"/>
  <outline>
    <contour>
      <point x="564.0" y="-17.0" type="line"/>
      <point x="808.5" y="-1.0"/>
      <point x="1003.0" y="201.5"/>
      <point x="1003.0" y="450.0" type="curve" smooth="yes"/>
      <point x="1003.0" y="698.5"/>
      <point x="808.5" y="901.0"/>
      <point x="564.0" y="917.0" type="curve"/>
      <point x="564.0" y="775.5" type="line"/>
      <point x="726.0" y="759.5"/>
      <point x="850.0" y="620.5"/>
      <point x="850.0" y="450.0" type="curve" smooth="yes"/>
      <point x="850.0" y="279.5"/>
      <point x="726.0" y="140.5"/>
      <point x="564.0" y="124.5" type="curve"/>
    </contour>
    <contour>
      <point x="496.0" y="-17.0" type="curve"/>
      <point x="496.0" y="124.5" type="line"/>
      <point x="334.0" y="140.5"/>
      <point x="210.0" y="280.0"/>
      <point x="210.0" y="450.0" type="curve" smooth="yes"/>
      <point x="210.0" y="620.0"/>
      <point x="334.0" y="759.5"/>
      <point x="496.0" y="775.5" type="curve"/>
      <point x="496.0" y="917.0" type="line"/>
      <point x="251.5" y="901.0"/>
      <point x="57.0" y="698.5"/>
      <point x="57.0" y="450.0" type="curve" smooth="yes"/>
      <point x="57.0" y="201.5"/>
      <point x="251.5" y="-1.0"/>
    </contour>
    <contour>
      <point x="955.0" y="721.5" type="line"/>
      <point x="994.0" y="751.0"/>
      <point x="1018.0" y="801.0"/>
      <point x="1018.0" y="868.0" type="curve" smooth="yes"/>
      <point x="1018.0" y="897.0"/>
      <point x="1013.0" y="928.0"/>
      <point x="994.0" y="960.0" type="curve"/>
      <point x="868.0" y="960.0" type="line"/>
      <point x="887.0" y="927.0"/>
      <point x="892.0" y="892.0"/>
      <point x="892.0" y="868.0" type="curve" smooth="yes"/>
      <point x="892.0" y="848.5"/>
      <point x="888.0" y="830.5"/>
      <point x="880.5" y="817.0" type="curve"/>
      <point x="872.0" y="847.0" type="line"/>
      <point x="913.0" y="813.0"/>
      <point x="948.5" y="773.0"/>
      <point x="976.5" y="728.0" type="curve"/>
    </contour>
  </outline>
</glyph>
<glyph name="ohorn" format="2">
  <advance width="770.0"/>
  <unicode hex="01A1"/>
  <anchor x="365.0" y="0.0" name="bottom"/>
  <anchor x="365.0" y="600.0" name="top"/>
  <outline>
    <contour>
      <point x="399.0" y="-15.0" type="line"/>
      <point x="560.0" y="0.0"/>
      <point x="685.0" y="135.0"/>
      <point x="685.0" y="300.0" type="curve" smooth="yes"/>
      <point x="685.0" y="465.0"/>
      <point x="560.0" y="600.0"/>
      <point x="399.0" y="615.0" type="curve"/>
      <point x="399.0" y="484.5" type="line"/>
      <point x="484.5" y="470.0"/>
      <point x="549.5" y="393.5"/>
      <point x="549.5" y="300.0" type="curve" smooth="yes"/>
      <point x="549.5" y="206.5"/>
      <point x="484.5" y="130.0"/>
      <point x="399.0" y="115.5" type="curve"/>
    </contour>
    <contour>
      <point x="331.0" y="-15.0" type="curve"/>
      <point x="331.0" y="115.5" type="line"/>
      <point x="244.5" y="130.0"/>
      <point x="180.5" y="206.5"/>
      <point x="180.5" y="300.0" type="curve" smooth="yes"/>
      <point x="180.5" y="393.5"/>
      <point x="244.5" y="470.0"/>
      <point x="331.0" y="484.5" type="curve"/>
      <point x="331.0" y="615.0" type="line"/>
      <point x="170.0" y="600.0"/>
      <point x="45.0" y="465.0"/>
      <point x="45.0" y="300.0" type="curve" smooth="yes"/>
      <point x="45.0" y="135.0"/>
      <point x="170.0" y="0.0"/>
    </contour>
    <contour>
      <point x="721.5" y="412.5" type="curve"/>
      <point x="686.0" y="423.0" type="line"/>
      <point x="727.0" y="449.0"/>
      <point x="756.0" y="498.5"/>
      <point x="756.0" y="568.0" type="curve" smooth="yes"/>
      <point x="756.0" y="597.0"/>
      <point x="751.0" y="628.0"/>
      <point x="732.0" y="660.0" type="curve"/>
      <point x="615.0" y="660.0" type="line"/>
      <point x="634.0" y="627.0"/>
      <point x="639.0" y="592.0"/>
      <point x="639.0" y="568.0" type="curve" smooth="yes"/>
      <point x="639.0" y="548.5"/>
      <point x="635.5" y="532.0"/>
      <point x="629.5" y="519.0" type="curve"/>
      <point x="603.5" y="584.0" type="line"/>
      <point x="658.5" y="539.5"/>
      <point x="700.0" y="481.5"/>
    </contour>
  </outline>
</glyph>
<glyph name="uhorn" format="2">
  <advance width="840.0"/>
  <unicode hex="01B0"/>
  <anchor x="354.0" y="0.0" name="bottom"/>
  <anchor x="352.0" y="600.0" name="top"/>
  <outline>
    <contour>
      <point x="683.0" y="392.5" type="line"/>
      <point x="760.0" y="398.5"/>
      <point x="826.0" y="459.5"/>
      <point x="826.0" y="568.0" type="curve" smooth="yes"/>
      <point x="826.0" y="597.0"/>
      <point x="821.0" y="628.0"/>
      <point x="802.0" y="660.0" type="curve"/>
      <point x="691.0" y="660.0" type="line"/>
      <point x="710.0" y="627.0"/>
      <point x="715.0" y="592.0"/>
      <point x="715.0" y="568.0" type="curve" smooth="yes"/>
      <point x="715.0" y="531.5"/>
      <point x="701.5" y="509.5"/>
      <point x="683.0" y="498.0" type="curve"/>
    </contour>
    <contour>
      <point x="311.5" y="-16.0" type="curve" smooth="yes"/>
      <point x="353.0" y="-16.0"/>
      <point x="393.0" y="-5.5"/>
      <point x="428.0" y="14.0" type="curve"/>
      <point x="428.0" y="137.5" type="line"/>
      <point x="405.0" y="121.5"/>
      <point x="377.5" y="113.0"/>
      <point x="349.0" y="113.0" type="curve" smooth="yes"/>
      <point x="260.5" y="113.0"/>
      <point x="210.0" y="186.0"/>
      <point x="210.0" y="267.0" type="curve" smooth="yes"/>
      <point x="210.0" y="600.0" type="line"/>
      <point x="69.0" y="600.0" type="line"/>
      <point x="69.0" y="248.0" type="line" smooth="yes"/>
      <point x="69.0" y="80.5"/>
      <point x="184.5" y="-16.0"/>
    </contour>
    <contour>
      <point x="488.0" y="0.0" type="line"/>
      <point x="629.0" y="0.0" type="line"/>
      <point x="629.0" y="600.0" type="line"/>
      <point x="488.0" y="600.0" type="line"/>
    </contour>
  </outline>
</glyph>
<glyph name="Ezh" format="2">
  <advance width="660.0"/>
  <unicode hex="01B7"/>
  <anchor x="302.0" y="0.0" name="bottom"/>
  <anchor x="321.5" y="900.0" name="top"/>
  <outline>
    <contour>
      <point x="331.5" y="-15.0" type="line"/>
      <point x="493.5" y="0.0"/>
      <point x="624.0" y="131.5"/>
      <point x="624.0" y="299.5" type="curve" smooth="yes"/>
      <point x="624.0" y="456.0"/>
      <point x="509.0" y="576.5"/>
      <point x="368.5" y="599.5" type="curve"/>
      <point x="378.5" y="538.0" type="line"/>
      <point x="572.5" y="900.0" type="line"/>
      <point x="424.5" y="900.0" type="line"/>
      <point x="169.5" y="404.5" type="line"/>
      <point x="163.5" y="435.0" type="line"/>
      <point x="204.5" y="463.5"/>
      <point x="247.5" y="481.0"/>
      <point x="298.0" y="481.0" type="curve" smooth="yes"/>
      <point x="404.0" y="481.0"/>
      <point x="482.0" y="400.0"/>
      <point x="482.0" y="300.5" type="curve" smooth="yes"/>
      <point x="482.0" y="209.0"/>
      <point x="417.5" y="134.5"/>
      <point x="331.5" y="121.0" type="curve"/>
    </contour>
    <contour>
      <point x="267.5" y="-15.0" type="curve"/>
      <point x="267.5" y="121.5" type="line"/>
      <point x="173.5" y="137.0"/>
      <point x="104.0" y="221.5"/>
      <point x="102.5" y="320.5" type="curve"/>
      <point x="124.0" y="328.0" type="line"/>
      <point x="-0.5" y="81.0" type="line"/>
      <point x="11.5" y="156.0" type="line"/>
      <point x="59.0" y="61.5"/>
      <point x="154.5" y="-4.5"/>
    </contour>
    <contour>
      <point x="78.0" y="771.0" type="line"/>
      <point x="292.0" y="771.0" type="line"/>
      <point x="359.0" y="900.0" type="line"/>
      <point x="78.0" y="900.0" type="line"/>
    </contour>
  </outline>
</glyph>
<glyph name="jdotless" format="2">
  <advance width="305.0"/>
  <unicode hex="0237"/>
  <anchor x="155.5" y="-300.0" name="bottom"/>
  <anchor x="154.0" y="600.0" name="top"/>
  <outline>
    <contour>
      <point x="34.0" y="-312.0" type="line"/>
      <point x="143.5" y="-312.0"/>
      <point x="224.0" y="-239.0"/>
      <point x="224.0" y="-111.5" type="curve" smooth="yes"/>
      <point x="224.0" y="600.0" type="line"/>
      <point x="85.0" y="600.0" type="line"/>
      <point x="85.0" y="-110.5" type="line" smooth="yes"/>
      <point x="85.0" y="-173.0"/>
      <point x="54.5" y="-196.0"/>
      <point x="6.5" y="-196.0" type="curve"/>
    </contour>
  </outline>
</glyph>
<glyph name="schwa" format="2">
  <advance width="700.0"/>
  <unicode hex="0259"/>
  <anchor x="349.0" y="0.0" name="bottom"/>
  <anchor x="63.0" y="590.0" name="ogonek"/>
  <anchor x="349.0" y="600.0" name="top"/>
  <outline>
    <contour>
      <point x="137.0" y="405.5" type="line"/>
      <point x="171.5" y="450.0"/>
      <point x="225.5" y="484.0"/>
      <point x="290.0" y="491.5" type="curve"/>
      <point x="290.0" y="615.0" type="line"/>
      <point x="219.5" y="609.5"/>
      <point x="155.0" y="585.0"/>
      <point x="103.0" y="545.0" type="curve"/>
    </contour>
    <contour>
      <point x="377.5" y="-15.0" type="line"/>
      <point x="534.5" y="0.0"/>
      <point x="655.0" y="129.0"/>
      <point x="655.0" y="294.0" type="curve" smooth="yes"/>
      <point x="655.0" y="468.5"/>
      <point x="531.5" y="601.5"/>
      <point x="354.0" y="615.0" type="curve"/>
      <point x="354.0" y="491.0" type="line"/>
      <point x="453.5" y="476.5"/>
      <point x="521.0" y="397.0"/>
      <point x="521.0" y="296.0" type="curve"/>
      <point x="528.5" y="296.0" type="line"/>
      <point x="528.5" y="197.0"/>
      <point x="465.5" y="118.0"/>
      <point x="377.5" y="103.0" type="curve"/>
    </contour>
    <contour>
      <point x="315.5" y="-15.0" type="curve"/>
      <point x="315.5" y="103.0" type="line"/>
      <point x="228.0" y="118.0"/>
      <point x="165.5" y="193.0"/>
      <point x="165.5" y="293.0" type="curve"/>
      <point x="140.0" y="246.5" type="line"/>
      <point x="180.0" y="237.0"/>
      <point x="220.0" y="232.5"/>
      <point x="265.5" y="232.5" type="curve" smooth="yes"/>
      <point x="418.0" y="232.5" type="line" smooth="yes"/>
      <point x="470.0" y="232.5"/>
      <point x="520.0" y="240.5"/>
      <point x="572.0" y="252.5" type="curve"/>
      <point x="572.0" y="320.5" type="line"/>
      <point x="520.0" y="332.5"/>
      <point x="470.0" y="340.5"/>
      <point x="418.0" y="340.5" type="curve" smooth="yes"/>
      <point x="39.0" y="340.5" type="line"/>
      <point x="39.0" y="288.0" type="line" smooth="yes"/>
      <point x="39.0" y="125.0"/>
      <point x="158.5" y="-0.5"/>
    </contour>
  </outline>
</glyph>
<glyph name="breveinvertedcomb" format="2">
  <unicode hex="0311"/>
  <anchor x="360.0" y="600.0" name="_top"/>
  <anchor x="360.0" y="849.0" name="top"/>
  <outline>
    <contour>
      <point x="168.0" y="669.0" type="curve"/>
      <point x="279.0" y="669.0" type="line"/>
      <point x="279.0" y="714.0"/>
      <point x="316.5" y="750.0"/>
      <point x="360.0" y="750.0" type="curve" smooth="yes"/>
      <point x="403.5" y="750.0"/>
      <point x="441.0" y="714.0"/>
      <point x="441.0" y="669.0" type="curve"/>
      <point x="552.0" y="669.0" type="line"/>
      <point x="552.0" y="774.5"/>
      <point x="467.0" y="855.0"/>
      <point x="360.0" y="855.0" type="curve" smooth="yes"/>
      <point x="252.0" y="855.0"/>
      <point x="168.0" y="776.0"/>
    </contour>
  </outline>
</glyph>
<glyph name="phi" format="2">
  <advance width="710.0"/>
  <unicode hex="03C6"/>
  <anchor x="355.0" y="0.0" name="bottom"/>
  <anchor x="355.0" y="600.0" name="top"/>
  <outline>
    <contour>
      <point x="488.0" y="0.0" type="line"/>
      <point x="629.0" y="0.0" type="line"/>
      <point x="629.0" y="600.0" type="line"/>
      <point x="488.0" y="600.0" type="line"/>
    </contour>
    <contour>
      <point x="81.0" y="0.0" type="line"/>
      <point x="222.0" y="0.0" type="line"/>
      <point x="222.0" y="600.0" type="line"/>
      <point x="81.0" y="600.0" type="line"/>
    </contour>
    <contour>
      <point x="141.0" y="471.0" type="line"/>
      <point x="569.0" y="471.0" type="line"/>
      <point x="569.0" y="600.0" type="line"/>
      <point x="141.0" y="600.0" type="line"/>
    </contour>
  </outline>
</glyph>
<glyph name="Germandbls" format="2">
  <advance width="990.0"/>
  <unicode hex="1E9E"/>
  <outline>
    <contour>
      <point x="513.5" y="450.5" type="line"/>
      <point x="545.5" y="468.0"/>
      <point x="579.5" y="478.0"/>
      <point x="618.0" y="478.0" type="curve" smooth="yes"/>
      <point x="633.5" y="478.0"/>
      <point x="648.5" y="476.0"/>
      <point x="662.0" y="472.0" type="curve"/>
      <point x="891.0" y="900.0" type="line"/>
      <point x="326.5" y="900.0" type="line"/>
      <point x="326.5" y="771.0" type="line"/>
      <point x="678.0" y="771.0" type="line"/>
    </contour>
    <contour>
      <point x="589.5" y="-15.0" type="curve"/>
      <point x="589.5" y="118.5" type="line"/>
      <point x="504.5" y="132.0"/>
      <point x="439.5" y="201.5"/>
      <point x="425.0" y="287.5" type="curve"/>
      <point x="346.0" y="130.5" type="line"/>
      <point x="396.5" y="49.0"/>
      <point x="486.0" y="-6.0"/>
    </contour>
    <contour>
      <point x="117.0" y="0.0" type="line"/>
      <point x="266.5" y="0.0" type="line"/>
      <point x="266.5" y="900.0" type="line"/>
      <point x="117.0" y="900.0" type="line"/>
    </contour>
    <contour>
      <point x="649.5" y="-15.0" type="line"/>
      <point x="811.0" y="0.0"/>
      <point x="941.0" y="130.0"/>
      <point x="941.0" y="296.5" type="curve" smooth="yes"/>
      <point x="941.0" y="414.0"/>
      <point x="874.5" y="512.0"/>
      <point x="782.0" y="561.0" type="curve"/>
      <point x="720.0" y="447.0" type="line"/>
      <point x="769.5" y="416.0"/>
      <point x="802.0" y="360.5"/>
      <point x="802.0" y="297.5" type="curve" smooth="yes"/>
      <point x="802.0" y="206.0"/>
      <point x="737.0" y="132.0"/>
      <point x="649.5" y="118.0" type="curve"/>
    </contour>
  </outline>
</glyph>
<glyph name="minute" format="2">
  <advance width="280.0"/>
  <unicode hex="2032"/>
  <outline>
    <contour>
      <point x="24.0" y="555.0" type="line"/>
      <point x="93.0" y="555.0" type="line"/>
      <point x="321.5" y="900.0" type="line"/>
      <point x="144.5" y="900.0" type="line"/>
    </contour>
  </outline>
</glyph>
<glyph name="guilsinglright" format="2">
  <advance width="360.0"/>
  <unicode hex="203A"/>
  <outline>
    <contour>
      <point x="169.5" y="60.0" type="line"/>
      <point x="331.5" y="300.0" type="line"/>
      <point x="169.5" y="540.0" type="line"/>
      <point x="34.5" y="540.0" type="line"/>
      <point x="196.5" y="300.0" type="line"/>
      <point x="34.5" y="60.0" type="line"/>
    </contour>
  </outline>
</glyph>
<glyph name="numero" format="2">
  <advance width="1425.0"/>
  <unicode hex="2116"/>
  <outline>
    <contour>
      <point x="834.0" y="-30.0" type="line"/>
      <point x="834.0" y="182.0" type="line"/>
      <point x="111.0" y="930.0" type="line"/>
      <point x="111.0" y="719.0" type="line"/>
    </contour>
    <contour>
      <point x="111.0" y="0.0" type="line"/>
      <point x="249.0" y="0.0" type="line"/>
      <point x="249.0" y="482.5" type="line"/>
      <point x="111.0" y="624.0" type="line"/>
    </contour>
    <contour>
      <point x="834.0" y="277.0" type="line"/>
      <point x="834.0" y="900.0" type="line"/>
      <point x="696.0" y="900.0" type="line"/>
      <point x="696.0" y="418.0" type="line"/>
    </contour>
    <contour>
      <point x="1185.0" y="104.0" type="curve" smooth="yes"/>
      <point x="1236.0" y="104.0"/>
      <point x="1275.0" y="143.5"/>
      <point x="1275.0" y="194.0" type="curve" smooth="yes"/>
      <point x="1275.0" y="244.5"/>
      <point x="1236.0" y="284.0"/>
      <point x="1185.0" y="284.0" type="curve" smooth="yes"/>
      <point x="1134.5" y="284.0"/>
      <point x="1095.0" y="244.5"/>
      <point x="1095.0" y="194.0" type="curve" smooth="yes"/>
      <point x="1095.0" y="143.5"/>
      <point x="1134.5" y="104.0"/>
    </contour>
    <contour>
      <point x="1157.0" y="407.0" type="curve"/>
      <point x="1157.0" y="508.5" type="line"/>
      <point x="1114.5" y="521.0"/>
      <point x="1086.5" y="557.0"/>
      <point x="1086.5" y="600.0" type="curve" smooth="yes"/>
      <point x="1086.5" y="643.0"/>
      <point x="1114.5" y="679.0"/>
      <point x="1157.0" y="691.5" type="curve"/>
      <point x="1157.0" y="793.0" type="line"/>
      <point x="1057.0" y="779.0"/>
      <point x="983.0" y="697.5"/>
      <point x="983.0" y="600.0" type="curve" smooth="yes"/>
      <point x="983.0" y="502.5"/>
      <point x="1057.0" y="421.0"/>
    </contour>
    <contour>
      <point x="1213.0" y="407.0" type="line"/>
      <point x="1313.0" y="421.0"/>
      <point x="1387.0" y="502.5"/>
      <point x="1387.0" y="600.0" type="curve" smooth="yes"/>
      <point x="1387.0" y="697.5"/>
      <point x="1313.0" y="779.0"/>
      <point x="1213.0" y="793.0" type="curve"/>
      <point x="1213.0" y="691.5" type="line"/>
      <point x="1254.5" y="679.0"/>
      <point x="1283.5" y="643.0"/>
      <point x="1283.5" y="600.0" type="curve" smooth="yes"/>
      <point x="1283.5" y="557.0"/>
      <point x="1254.5" y="521.0"/>
      <point x="1213.0" y="508.5" type="curve"/>
    </contour>
  </outline>
</glyph>
<glyph name="trademark" format="2">
  <advance width="840.0"/>
  <unicode hex="2122"/>
  <outline>
    <contour>
      <point x="586.0" y="546.0" type="line"/>
      <point x="785.0" y="792.5" type="line"/>
      <point x="785.0" y="933.0" type="line"/>
      <point x="588.0" y="687.0" type="line"/>
      <point x="391.0" y="930.0" type="line"/>
      <point x="391.0" y="789.0" type="line"/>
    </contour>
    <contour>
      <point x="130.5" y="540.0" type="line"/>
      <point x="229.5" y="540.0" type="line"/>
      <point x="229.5" y="762.0" type="line"/>
      <point x="130.5" y="762.0" type="line"/>
    </contour>
    <contour>
      <point x="31.0" y="810.0" type="line"/>
      <point x="329.0" y="810.0" type="line"/>
      <point x="329.0" y="900.0" type="line"/>
      <point x="31.0" y="900.0" type="line"/>
    </contour>
    <contour>
      <point x="391.0" y="540.0" type="line"/>
      <point x="484.0" y="540.0" type="line"/>
      <point x="484.0" y="596.0" type="line"/>
      <point x="391.0" y="711.0" type="line"/>
    </contour>
    <contour>
      <point x="686.0" y="540.0" type="line"/>
      <point x="785.0" y="540.0" type="line"/>
      <point x="785.0" y="714.0" type="line"/>
      <point x="686.0" y="592.5" type="line"/>
    </contour>
  </outline>
</glyph>
<glyph name="el" format="2">
  <advance width="750.0"/>
  <unicode hex="218B"/>
  <outline>
    <contour>
      <point x="130.5" y="0.0" type="line"/>
      <point x="275.5" y="0.0" type="line"/>
      <point x="520.0" y="472.0" type="line"/>
      <point x="490.5" y="458.5"/>
      <point x="461.0" y="452.5"/>
      <point x="427.0" y="452.5" type="curve" smooth="yes"/>
      <point x="332.0" y="452.5"/>
      <point x="261.0" y="526.0"/>
      <point x="261.0" y="618.5" type="curve" smooth="yes"/>
      <point x="261.0" y="702.5"/>
      <point x="319.0" y="769.5"/>
      <point x="397.5" y="782.5" type="curve"/>
      <point x="397.5" y="915.0" type="line"/>
      <point x="244.5" y="900.0"/>
      <point x="122.0" y="775.0"/>
      <point x="122.0" y="618.0" type="curve" smooth="yes"/>
      <point x="122.0" y="475.0"/>
      <point x="226.0" y="360.5"/>
      <point x="357.0" y="339.0" type="curve"/>
      <point x="344.0" y="398.5" type="line"/>
    </contour>
    <contour>
      <point x="342.0" y="0.0" type="line"/>
      <point x="662.5" y="0.0" type="line"/>
      <point x="662.5" y="129.0" type="line"/>
      <point x="408.0" y="129.0" type="line"/>
    </contour>
    <contour>
      <point x="604.5" y="638.5" type="curve"/>
      <point x="681.0" y="787.5" type="line"/>
      <point x="631.0" y="859.5"/>
      <point x="551.0" y="906.0"/>
      <point x="461.5" y="915.0" type="curve"/>
      <point x="461.5" y="782.0" type="line"/>
      <point x="532.0" y="769.0"/>
      <point x="587.0" y="712.0"/>
    </contour>
  </outline>
</glyph>
<glyph name="greaterequal" format="2">
  <advance width="750.0"/>
  <unicode hex="2265"/>
  <outline>
    <contour>
      <point x="81.0" y="203.0" type="line"/>
      <point x="708.0" y="511.0" type="line"/>
      <point x="81.0" y="819.0" type="line"/>
      <point x="81.0" y="691.5" type="line"/>
      <point x="351.0" y="562.0" type="line" smooth="yes"/>
      <point x="388.0" y="544.0"/>
      <point x="431.0" y="527.0"/>
      <point x="472.0" y="511.0" type="curve"/>
      <point x="431.0" y="494.0"/>
      <point x="388.0" y="477.0"/>
      <point x="351.0" y="459.0" type="curve" smooth="yes"/>
      <point x="81.0" y="328.5" type="line"/>
    </contour>
    <contour>
      <point x="81.0" y="62.0" type="line"/>
      <point x="669.0" y="62.0" type="line"/>
      <point x="669.0" y="166.0" type="line"/>
      <point x="81.0" y="166.0" type="line"/>
    </contour>
  </outline>
</glyph>
<glyph name="A.ring" format="2">
  <advance width="810.0"/>
  <anchor x="405.0" y="900.0" name="top"/>
  <outline>
    <contour>
      <point x="644.0" y="0.0" type="line"/>
      <point x="795.0" y="0.0" type="line"/>
      <point x="419.0" y="900.0" type="line"/>
      <point x="391.0" y="900.0" type="line"/>
      <point x="333.0" y="762.0" type="line"/>
    </contour>
    <contour>
      <point x="15.0" y="0.0" type="line"/>
      <point x="160.0" y="0.0" type="line"/>
      <point x="369.5" y="513.5" type="line"/>
      <point x="299.0" y="685.5" type="line"/>
    </contour>
    <contour>
      <point x="313.0" y="213.5" type="line"/>
      <point x="605.5" y="213.5" type="line"/>
      <point x="556.5" y="333.0" type="line"/>
      <point x="362.0" y="333.0" type="line"/>
    </contour>
  </outline>
</glyph>
<glyph name="a.ss02" format="2">
  <advance width="680.0"/>
  <anchor x="333.0" y="0.0" name="bottom"/>
  <anchor x="556.0" y="0.0" name="ogonek"/>
  <anchor x="342.0" y="600.0" name="top"/>
  <outline>
    <contour>
      <point x="273.0" y="-11.0" type="curve" smooth="yes"/>
      <point x="329.0" y="-11.0"/>
      <point x="382.0" y="3.5"/>
      <point x="426.0" y="31.5" type="curve"/>
      <point x="426.0" y="142.5" type="line"/>
      <point x="390.5" y="116.0"/>
      <point x="343.0" y="100.0"/>
      <point x="295.0" y="100.0" type="curve" smooth="yes"/>
      <point x="222.0" y="100.0"/>
      <point x="180.0" y="136.5"/>
      <point x="180.0" y="185.5" type="curve" smooth="yes"/>
      <point x="180.0" y="241.5"/>
      <point x="235.5" y="273.0"/>
      <point x="320.5" y="273.0" type="curve" smooth="yes"/>
      <point x="355.0" y="273.0"/>
      <point x="392.0" y="268.0"/>
      <point x="426.0" y="259.0" type="curve"/>
      <point x="426.0" y="361.5" type="line"/>
      <point x="389.0" y="372.5"/>
      <point x="350.0" y="378.0"/>
      <point x="307.5" y="378.0" type="curve" smooth="yes"/>
      <point x="153.5" y="378.0"/>
      <point x="45.0" y="302.5"/>
      <point x="45.0" y="182.5" type="curve" smooth="yes"/>
      <point x="45.0" y="67.5"/>
      <point x="141.0" y="-11.0"/>
    </contour>
    <contour>
      <point x="122.5" y="418.0" type="line"/>
      <point x="164.5" y="457.0"/>
      <point x="224.0" y="484.5"/>
      <point x="289.0" y="490.0" type="curve"/>
      <point x="289.0" y="609.5" type="line"/>
      <point x="214.5" y="604.0"/>
      <point x="145.5" y="580.0"/>
      <point x="91.0" y="545.0" type="curve"/>
    </contour>
    <contour>
      <point x="486.0" y="0.0" type="line"/>
      <point x="611.0" y="0.0" type="line"/>
      <point x="611.0" y="371.0" type="line" smooth="yes"/>
      <point x="611.0" y="510.0"/>
      <point x="506.5" y="601.5"/>
      <point x="353.0" y="610.5" type="curve"/>
      <point x="353.0" y="489.0" type="line"/>
      <point x="437.5" y="477.5"/>
      <point x="486.0" y="421.0"/>
      <point x="486.0" y="351.0" type="curve" smooth="yes"/>
    </contour>
  </outline>
</glyph>
<glyph name="backslash.titl" format="2">
  <advance width="480.0"/>
  <outline>
    <contour>
      <point x="547.5" y="-180.0" type="line"/>
      <point x="7.5" y="960.0" type="line"/>
      <point x="-67.5" y="960.0" type="line"/>
      <point x="472.5" y="-180.0" type="line"/>
    </contour>
  </outline>
</glyph>
<glyph name="braceleft.titl" format="2">
  <advance width="480.0"/>
  <outline>
    <contour>
      <point x="407.0" y="-186.0" type="curve"/>
      <point x="420.0" y="-129.5" type="line"/>
      <point x="295.5" y="-129.5"/>
      <point x="225.0" y="-77.5"/>
      <point x="225.0" y="71.0" type="curve" smooth="yes"/>
      <point x="225.0" y="132.0"/>
      <point x="238.0" y="201.0"/>
      <point x="238.0" y="244.5" type="curve" smooth="yes"/>
      <point x="238.0" y="334.5"/>
      <point x="182.5" y="398.0"/>
      <point x="84.0" y="398.0" type="curve"/>
      <point x="84.0" y="382.0" type="line"/>
      <point x="182.5" y="382.0"/>
      <point x="238.0" y="445.5"/>
      <point x="238.0" y="535.5" type="curve" smooth="yes"/>
      <point x="238.0" y="579.0"/>
      <point x="225.0" y="648.0"/>
      <point x="225.0" y="709.0" type="curve" smooth="yes"/>
      <point x="225.0" y="857.5"/>
      <point x="296.5" y="909.5"/>
      <point x="420.0" y="909.5" type="curve"/>
      <point x="407.0" y="966.0" type="line"/>
      <point x="259.5" y="966.0"/>
      <point x="158.0" y="887.5"/>
      <point x="158.0" y="718.5" type="curve" smooth="yes"/>
      <point x="158.0" y="659.5"/>
      <point x="170.5" y="584.0"/>
      <point x="170.5" y="540.0" type="curve" smooth="yes"/>
      <point x="170.5" y="457.5"/>
      <point x="127.5" y="426.0"/>
      <point x="39.0" y="390.0" type="curve"/>
      <point x="127.5" y="354.0"/>
      <point x="170.5" y="322.5"/>
      <point x="170.5" y="240.0" type="curve" smooth="yes"/>
      <point x="170.5" y="196.0"/>
      <point x="158.0" y="120.5"/>
      <point x="158.0" y="61.5" type="curve" smooth="yes"/>
      <point x="158.0" y="-107.5"/>
      <point x="259.5" y="-186.0"/>
    </contour>
  </outline>
</glyph>
<glyph name="brevecomb_hookabovecomb" format="2">
  <anchor x="360.0" y="600.0" name="_top"/>
  <outline>
    <contour>
      <point x="360.0" y="669.0" type="curve" smooth="yes"/>
      <point x="467.5" y="669.0"/>
      <point x="552.0" y="748.5"/>
      <point x="552.0" y="855.0" type="curve"/>
      <point x="450.0" y="855.0" type="line"/>
      <point x="450.0" y="805.0"/>
      <point x="408.0" y="765.0"/>
      <point x="360.0" y="765.0" type="curve" smooth="yes"/>
      <point x="312.0" y="765.0"/>
      <point x="270.0" y="805.0"/>
      <point x="270.0" y="855.0" type="curve"/>
      <point x="168.0" y="855.0" type="line"/>
      <point x="168.0" y="749.0"/>
      <point x="252.5" y="669.0"/>
    </contour>
    <contour>
      <point x="308.5" y="879.0" type="curve"/>
      <point x="419.5" y="879.0" type="line"/>
      <point x="443.0" y="903.0"/>
      <point x="459.0" y="931.0"/>
      <point x="459.0" y="966.0" type="curve" smooth="yes"/>
      <point x="459.0" y="1035.0"/>
      <point x="398.0" y="1076.0"/>
      <point x="323.5" y="1076.0" type="curve" smooth="yes"/>
      <point x="282.5" y="1076.0"/>
      <point x="241.0" y="1063.5"/>
      <point x="216.5" y="1043.5" type="curve"/>
      <point x="240.0" y="957.0" type="line"/>
      <point x="254.0" y="973.5"/>
      <point x="277.5" y="989.0"/>
      <point x="301.5" y="989.0" type="curve" smooth="yes"/>
      <point x="331.0" y="989.0"/>
      <point x="349.5" y="971.0"/>
      <point x="349.5" y="946.5" type="curve" smooth="yes"/>
      <point x="349.5" y="928.0"/>
      <point x="335.0" y="906.0"/>
    </contour>
  </outline>
</glyph>
<glyph name="brevecomb_tildecomb" format="2">
  <anchor x="360.0" y="600.0" name="_top"/>
  <outline>
    <contour>
      <point x="204.5" y="894.0" type="line"/>
      <point x="220.5" y="933.5"/>
      <point x="246.5" y="956.5"/>
      <point x="283.5" y="956.5" type="curve" smooth="yes"/>
      <point x="333.0" y="956.5"/>
      <point x="380.0" y="912.0"/>
      <point x="439.0" y="912.0" type="curve" smooth="yes"/>
      <point x="485.0" y="912.0"/>
      <point x="524.5" y="937.0"/>
      <point x="547.5" y="982.5" type="curve"/>
      <point x="515.5" y="1074.0" type="line"/>
      <point x="499.5" y="1035.0"/>
      <point x="473.5" y="1011.5"/>
      <point x="436.5" y="1011.5" type="curve" smooth="yes"/>
      <point x="387.0" y="1011.5"/>
      <point x="340.0" y="1056.5"/>
      <point x="281.0" y="1056.5" type="curve" smooth="yes"/>
      <point x="235.0" y="1056.5"/>
      <point x="195.5" y="1031.0"/>
      <point x="172.5" y="985.5" type="curve"/>
    </contour>
    <contour>
      <point x="360.0" y="669.0" type="curve" smooth="yes"/>
      <point x="468.0" y="669.0"/>
      <point x="552.0" y="748.0"/>
      <point x="552.0" y="855.0" type="curve"/>
      <point x="450.0" y="855.0" type="line"/>
      <point x="450.0" y="805.0"/>
      <point x="408.0" y="765.0"/>
      <point x="360.0" y="765.0" type="curve" smooth="yes"/>
      <point x="312.0" y="765.0"/>
      <point x="270.0" y="805.0"/>
      <point x="270.0" y="855.0" type="curve"/>
      <point x="168.0" y="855.0" type="line"/>
      <point x="168.0" y="749.5"/>
      <point x="253.0" y="669.0"/>
    </contour>
  </outline>
</glyph>
<glyph name="circumflexcomb_hookabovecomb" format="2">
  <anchor x="360.0" y="600.0" name="_top"/>
  <outline>
    <contour>
      <point x="156.0" y="684.0" type="line"/>
      <point x="290.0" y="684.0" type="line"/>
      <point x="315.0" y="710.0"/>
      <point x="333.5" y="735.5"/>
      <point x="358.0" y="770.5" type="curve"/>
      <point x="382.5" y="735.5"/>
      <point x="401.0" y="710.0"/>
      <point x="426.0" y="684.0" type="curve"/>
      <point x="564.0" y="684.0" type="line"/>
      <point x="360.0" y="915.0" type="line"/>
    </contour>
    <contour>
      <point x="526.0" y="813.0" type="curve"/>
      <point x="637.0" y="813.0" type="line"/>
      <point x="661.0" y="838.5"/>
      <point x="681.0" y="869.5"/>
      <point x="681.0" y="909.0" type="curve" smooth="yes"/>
      <point x="681.0" y="978.0"/>
      <point x="620.0" y="1019.0"/>
      <point x="545.5" y="1019.0" type="curve" smooth="yes"/>
      <point x="504.5" y="1019.0"/>
      <point x="463.0" y="1006.5"/>
      <point x="438.5" y="986.5" type="curve"/>
      <point x="462.0" y="900.0" type="line"/>
      <point x="476.0" y="916.5"/>
      <point x="499.5" y="932.0"/>
      <point x="523.5" y="932.0" type="curve" smooth="yes"/>
      <point x="553.0" y="932.0"/>
      <point x="571.5" y="914.0"/>
      <point x="571.5" y="889.5" type="curve" smooth="yes"/>
      <point x="571.5" y="869.0"/>
      <point x="554.5" y="844.0"/>
    </contour>
  </outline>
</glyph>
<glyph name="d.croat" format="2">
  <advance width="750.0"/>
  <anchor x="359.0" y="0.0" name="bottom"/>
  <anchor x="601.5" y="780.0" name="center"/>
  <anchor x="671.0" y="5.0" name="ogonek"/>
  <anchor x="359.0" y="600.0" name="top"/>
  <anchor x="669.0" y="960.0" name="topright"/>
  <outline>
    <contour>
      <point x="345.0" y="-12.0" type="curve" smooth="yes"/>
      <point x="450.0" y="-12.0"/>
      <point x="537.0" y="41.5"/>
      <point x="585.0" y="122.5" type="curve"/>
      <point x="544.0" y="150.0" type="line"/>
      <point x="544.0" y="0.0" type="line"/>
      <point x="669.0" y="0.0" type="line"/>
      <point x="669.0" y="682.0" type="line"/>
      <point x="537.0" y="682.0" type="line"/>
      <point x="537.0" y="451.5" type="line"/>
      <point x="585.0" y="478.0" type="line"/>
      <point x="537.5" y="558.0"/>
      <point x="450.0" y="612.0"/>
      <point x="345.0" y="612.0" type="curve" smooth="yes"/>
      <point x="179.0" y="612.0"/>
      <point x="45.0" y="472.0"/>
      <point x="45.0" y="300.0" type="curve" smooth="yes"/>
      <point x="45.0" y="128.0"/>
      <point x="179.0" y="-12.0"/>
    </contour>
    <contour>
      <point x="362.0" y="113.5" type="curve" smooth="yes"/>
      <point x="261.0" y="113.5"/>
      <point x="180.0" y="197.0"/>
      <point x="180.0" y="300.0" type="curve" smooth="yes"/>
      <point x="180.0" y="403.0"/>
      <point x="261.0" y="486.5"/>
      <point x="362.0" y="486.5" type="curve" smooth="yes"/>
      <point x="463.0" y="486.5"/>
      <point x="544.0" y="403.0"/>
      <point x="544.0" y="300.0" type="curve" smooth="yes"/>
      <point x="544.0" y="197.0"/>
      <point x="463.0" y="113.5"/>
    </contour>
    <contour>
      <point x="537.0" y="742.0" type="line"/>
      <point x="669.0" y="742.0" type="line"/>
      <point x="669.0" y="960.0" type="line"/>
      <point x="537.0" y="960.0" type="line"/>
    </contour>
  </outline>
</glyph>
<glyph name="dek.numr" format="2">
  <advance width="480.0"/>
  <outline>
    <contour>
      <point x="225.0" y="407.5" type="curve"/>
      <point x="225.0" y="512.0" type="line"/>
      <point x="201.5" y="522.0"/>
      <point x="189.0" y="543.0"/>
      <point x="189.0" y="568.5" type="curve" smooth="yes"/>
      <point x="189.0" y="590.0"/>
      <point x="196.0" y="609.5"/>
      <point x="223.0" y="644.5" type="curve" smooth="yes"/>
      <point x="422.5" y="900.0" type="line"/>
      <point x="303.0" y="900.0" type="line"/>
      <point x="139.0" y="697.0" type="line"/>
      <point x="97.5" y="646.0"/>
      <point x="80.0" y="608.5"/>
      <point x="80.0" y="567.0" type="curve" smooth="yes"/>
      <point x="80.0" y="487.0"/>
      <point x="139.5" y="419.5"/>
    </contour>
    <contour>
      <point x="281.0" y="407.5" type="line"/>
      <point x="365.0" y="420.0"/>
      <point x="424.5" y="485.0"/>
      <point x="424.5" y="567.5" type="curve" smooth="yes"/>
      <point x="424.5" y="589.5"/>
      <point x="420.5" y="605.5"/>
      <point x="413.0" y="624.0" type="curve"/>
      <point x="298.0" y="624.0" type="line"/>
      <point x="311.5" y="606.5"/>
      <point x="317.5" y="590.0"/>
      <point x="317.5" y="571.0" type="curve" smooth="yes"/>
      <point x="317.5" y="543.0"/>
      <point x="304.0" y="521.5"/>
      <point x="281.0" y="511.5" type="curve"/>
    </contour>
    <contour>
      <point x="55.5" y="803.0" type="line"/>
      <point x="161.0" y="803.0" type="line"/>
      <point x="240.0" y="900.0" type="line"/>
      <point x="55.5" y="900.0" type="line"/>
    </contour>
  </outline>
</glyph>
<glyph name="dieresiscomb.vertical" format="2">
  <anchor x="360.0" y="532.5" name="_top-vertical"/>
  <outline>
    <contour>
      <point x="360.0" y="336.0" type="curve" smooth="yes"/>
      <point x="403.0" y="336.0"/>
      <point x="436.5" y="369.5"/>
      <point x="436.5" y="412.5" type="curve" smooth="yes"/>
      <point x="436.5" y="454.5"/>
      <point x="403.0" y="489.0"/>
      <point x="360.0" y="489.0" type="curve" smooth="yes"/>
      <point x="318.0" y="489.0"/>
      <point x="283.5" y="454.5"/>
      <point x="283.5" y="412.5" type="curve" smooth="yes"/>
      <point x="283.5" y="369.5"/>
      <point x="318.0" y="336.0"/>
    </contour>
    <contour>
      <point x="360.0" y="576.0" type="curve" smooth="yes"/>
      <point x="403.0" y="576.0"/>
      <point x="436.5" y="609.5"/>
      <point x="436.5" y="652.5" type="curve" smooth="yes"/>
      <point x="436.5" y="694.5"/>
      <point x="403.0" y="729.0"/>
      <point x="360.0" y="729.0" type="curve" smooth="yes"/>
      <point x="318.0" y="729.0"/>
      <point x="283.5" y="694.5"/>
      <point x="283.5" y="652.5" type="curve" smooth="yes"/>
      <point x="283.5" y="609.5"/>
      <point x="318.0" y="576.0"/>
    </contour>
  </outline>
</glyph>
<glyph name="dotaccentcomb.case" format="2">
  <anchor x="360.0" y="900.0" name="_top"/>
  <outline>
    <contour>
      <point x="360.0" y="997.5" type="curve" smooth="yes"/>
      <point x="407.0" y="997.5"/>
      <point x="442.5" y="1034.0"/>
      <point x="442.5" y="1080.0" type="curve" smooth="yes"/>
      <point x="442.5" y="1127.0"/>
      <point x="407.0" y="1162.5"/>
      <point x="360.0" y="1162.5" type="curve" smooth="yes"/>
      <point x="314.0" y="1162.5"/>
      <point x="277.5" y="1127.0"/>
      <point x="277.5" y="1080.0" type="curve" smooth="yes"/>
      <point x="277.5" y="1034.0"/>
      <point x="314.0" y="997.5"/>
    </contour>
  </outline>
</glyph>
<glyph name="dotaccentcomb_macroncomb" format="2">
  <anchor x="360.0" y="600.0" name="_top"/>
  <outline>
    <contour>
      <point x="360.0" y="699.0" type="curve" smooth="yes"/>
      <point x="406.0" y="699.0"/>
      <point x="441.0" y="735.0"/>
      <point x="441.0" y="780.0" type="curve" smooth="yes"/>
      <point x="441.0" y="826.0"/>
      <point x="406.0" y="861.0"/>
      <point x="360.0" y="861.0" type="curve" smooth="yes"/>
      <point x="315.0" y="861.0"/>
      <point x="279.0" y="826.0"/>
      <point x="279.0" y="780.0" type="curve" smooth="yes"/>
      <point x="279.0" y="735.0"/>
      <point x="315.0" y="699.0"/>
    </contour>
    <contour>
      <point x="183.0" y="929.5" type="line"/>
      <point x="537.0" y="929.5" type="line"/>
      <point x="537.0" y="1028.5" type="line"/>
      <point x="183.0" y="1028.5" type="line"/>
    </contour>
  </outline>
</glyph>
<glyph name="eight.numr" format="2">
  <advance width="480.0"/>
  <outline>
    <contour>
      <point x="268.0" y="406.0" type="line"/>
      <point x="363.0" y="413.5"/>
      <point x="438.0" y="478.0"/>
      <point x="438.0" y="572.0" type="curve" smooth="yes"/>
      <point x="438.0" y="645.0"/>
      <point x="392.0" y="703.0"/>
      <point x="328.5" y="726.0" type="curve"/>
      <point x="346.0" y="688.0" type="line"/>
      <point x="374.5" y="707.5"/>
      <point x="397.0" y="741.0"/>
      <point x="397.0" y="783.0" type="curve" smooth="yes"/>
      <point x="397.0" y="858.0"/>
      <point x="344.5" y="906.5"/>
      <point x="268.0" y="914.0" type="curve"/>
      <point x="268.0" y="827.0" type="line"/>
      <point x="289.0" y="819.5"/>
      <point x="302.5" y="800.5"/>
      <point x="302.5" y="778.5" type="curve" smooth="yes"/>
      <point x="302.5" y="756.5"/>
      <point x="289.0" y="737.5"/>
      <point x="268.0" y="730.0" type="curve"/>
      <point x="268.0" y="659.0" type="line"/>
      <point x="305.5" y="650.5"/>
      <point x="331.0" y="619.5"/>
      <point x="331.0" y="580.0" type="curve" smooth="yes"/>
      <point x="331.0" y="540.5"/>
      <point x="305.5" y="509.5"/>
      <point x="268.0" y="501.0" type="curve"/>
    </contour>
    <contour>
      <point x="212.0" y="406.0" type="curve"/>
      <point x="212.0" y="501.0" type="line"/>
      <point x="173.5" y="509.5"/>
      <point x="149.0" y="541.0"/>
      <point x="149.0" y="580.0" type="curve" smooth="yes"/>
      <point x="149.0" y="619.0"/>
      <point x="173.5" y="650.5"/>
      <point x="212.0" y="659.0" type="curve"/>
      <point x="212.0" y="730.0" type="line"/>
      <point x="190.5" y="738.0"/>
      <point x="177.5" y="757.0"/>
      <point x="177.5" y="778.5" type="curve" smooth="yes"/>
      <point x="177.5" y="800.0"/>
      <point x="190.5" y="819.0"/>
      <point x="212.0" y="827.0" type="curve"/>
      <point x="212.0" y="914.0" type="line"/>
      <point x="135.0" y="905.0"/>
      <point x="83.0" y="851.0"/>
      <point x="83.0" y="783.0" type="curve" smooth="yes"/>
      <point x="83.0" y="741.0"/>
      <point x="104.5" y="707.5"/>
      <point x="134.0" y="688.0" type="curve"/>
      <point x="151.5" y="726.0" type="line"/>
      <point x="88.0" y="703.0"/>
      <point x="42.0" y="645.0"/>
      <point x="42.0" y="572.0" type="curve" smooth="yes"/>
      <point x="42.0" y="479.5"/>
      <point x="119.5" y="415.0"/>
    </contour>
  </outline>
</glyph>
<glyph name="emdash.titl.case" format="2">
  <advance width="1440.0"/>
  <outline>
    <contour>
      <point x="60.0" y="418.5" type="line"/>
      <point x="1380.0" y="418.5" type="line"/>
      <point x="1380.0" y="481.5" type="line"/>
      <point x="60.0" y="481.5" type="line"/>
    </contour>
  </outline>
</glyph>
<glyph name="five.lf" format="2">
  <advance width="690.0"/>
  <outline>
    <contour>
      <point x="334.0" y="-15.0" type="line"/>
      <point x="494.5" y="-0.5"/>
      <point x="623.0" y="130.0"/>
      <point x="623.0" y="296.5" type="curve" smooth="yes"/>
      <point x="623.0" y="477.5"/>
      <point x="480.0" y="595.0"/>
      <point x="318.0" y="598.5" type="curve"/>
      <point x="318.0" y="474.0" type="line"/>
      <point x="410.0" y="465.0"/>
      <point x="484.0" y="397.0"/>
      <point x="484.0" y="297.5" type="curve" smooth="yes"/>
      <point x="484.0" y="206.0"/>
      <point x="418.5" y="133.0"/>
      <point x="334.0" y="118.5" type="curve"/>
    </contour>
    <contour>
      <point x="270.0" y="-15.0" type="curve"/>
      <point x="270.0" y="118.0" type="line"/>
      <point x="188.0" y="131.0"/>
      <point x="123.5" y="198.0"/>
      <point x="107.5" y="282.0" type="curve"/>
      <point x="29.0" y="127.0" type="line"/>
      <point x="80.5" y="47.5"/>
      <point x="169.0" y="-6.0"/>
    </contour>
    <contour>
      <point x="137.0" y="401.5" type="line"/>
      <point x="167.5" y="437.0"/>
      <point x="209.5" y="463.0"/>
      <point x="258.0" y="471.5" type="curve"/>
      <point x="258.0" y="900.0" type="line"/>
      <point x="137.0" y="900.0" type="line"/>
    </contour>
    <contour>
      <point x="318.0" y="771.0" type="line"/>
      <point x="556.0" y="771.0" type="line"/>
      <point x="556.0" y="900.0" type="line"/>
      <point x="318.0" y="900.0" type="line"/>
    </contour>
  </outline>
</glyph>
<glyph name="gravecomb.case" format="2">
  <anchor x="450.0" y="900.0" name="_top"/>
  <anchor x="283.5" y="1176.0" name="top"/>
  <outline>
    <contour>
      <point x="387.0" y="984.0" type="line"/>
      <point x="522.0" y="984.0" type="line"/>
      <point x="373.5" y="1176.0" type="line"/>
      <point x="193.5" y="1176.0" type="line"/>
    </contour>
  </outline>
</glyph>
<glyph name="l.ss03" format="2">
  <advance width="330.0"/>
  <anchor x="150.0" y="0.0" name="bottom"/>
  <anchor x="150.0" y="480.0" name="center"/>
  <anchor x="362.5" y="420.0" name="periodcentered"/>
  <anchor x="150.0" y="960.0" name="top"/>
  <anchor x="220.5" y="960.0" name="topright"/>
  <outline>
    <contour>
      <point x="270.0" y="-12.0" type="curve"/>
      <point x="297.5" y="104.0" type="line"/>
      <point x="250.0" y="104.0"/>
      <point x="220.5" y="127.0"/>
      <point x="220.5" y="189.5" type="curve" smooth="yes"/>
      <point x="220.5" y="960.0" type="line"/>
      <point x="79.5" y="960.0" type="line"/>
      <point x="79.5" y="188.5" type="line" smooth="yes"/>
      <point x="79.5" y="61.0"/>
      <point x="160.0" y="-12.0"/>
    </contour>
  </outline>
</glyph>
<glyph name="less.titl" format="2">
  <advance width="750.0"/>
  <outline>
    <contour>
      <point x="660.0" y="165.5" type="line"/>
      <point x="660.0" y="236.5" type="line"/>
      <point x="334.0" y="393.5" type="line" smooth="yes"/>
      <point x="292.0" y="414.0"/>
      <point x="244.5" y="433.0"/>
      <point x="199.5" y="451.0" type="curve"/>
      <point x="244.5" y="469.0"/>
      <point x="292.0" y="488.0"/>
      <point x="334.0" y="508.5" type="curve" smooth="yes"/>
      <point x="660.0" y="666.0" type="line"/>
      <point x="660.0" y="736.5" type="line"/>
      <point x="75.0" y="451.0" type="line"/>
    </contour>
  </outline>
</glyph>
<glyph name="nine.lf" format="2">
  <advance width="750.0"/>
  <outline>
    <contour>
      <point x="252.0" y="0.0" type="line"/>
      <point x="404.0" y="0.0" type="line"/>
      <point x="645.5" y="464.0" type="line" smooth="yes"/>
      <point x="670.0" y="511.0"/>
      <point x="684.0" y="559.5"/>
      <point x="684.0" y="613.0" type="curve" smooth="yes"/>
      <point x="684.0" y="773.5"/>
      <point x="561.0" y="901.0"/>
      <point x="402.5" y="915.0" type="curve"/>
      <point x="402.5" y="781.5" type="line"/>
      <point x="483.0" y="767.5"/>
      <point x="545.0" y="696.0"/>
      <point x="545.0" y="609.5" type="curve" smooth="yes"/>
      <point x="545.0" y="569.5"/>
      <point x="535.0" y="530.5"/>
      <point x="504.5" y="474.0" type="curve" smooth="yes"/>
    </contour>
    <contour>
      <point x="350.5" y="314.0" type="curve"/>
      <point x="419.0" y="442.0" type="line"/>
      <point x="403.0" y="437.0"/>
      <point x="387.0" y="435.0"/>
      <point x="370.5" y="435.0" type="curve" smooth="yes"/>
      <point x="273.0" y="435.0"/>
      <point x="196.0" y="513.0"/>
      <point x="196.0" y="609.5" type="curve" smooth="yes"/>
      <point x="196.0" y="696.0"/>
      <point x="256.5" y="767.0"/>
      <point x="338.5" y="781.5" type="curve"/>
      <point x="338.5" y="915.0" type="line"/>
      <point x="179.5" y="900.0"/>
      <point x="57.0" y="773.5"/>
      <point x="57.0" y="611.5" type="curve" smooth="yes"/>
      <point x="57.0" y="443.0"/>
      <point x="184.0" y="321.5"/>
    </contour>
  </outline>
</glyph>
<glyph name="nine.numr" format="2">
  <advance width="480.0"/>
  <outline>
    <contour>
      <point x="173.5" y="420.0" type="line"/>
      <point x="287.0" y="420.0" type="line"/>
      <point x="407.0" y="650.5" type="line" smooth="yes"/>
      <point x="420.0" y="676.0"/>
      <point x="428.5" y="707.0"/>
      <point x="428.5" y="736.5" type="curve" smooth="yes"/>
      <point x="428.5" y="827.0"/>
      <point x="359.5" y="899.5"/>
      <point x="268.0" y="913.0" type="curve"/>
      <point x="268.0" y="814.5" type="line"/>
      <point x="301.5" y="802.5"/>
      <point x="322.5" y="773.0"/>
      <point x="322.5" y="738.5" type="curve" smooth="yes"/>
      <point x="322.5" y="719.5"/>
      <point x="318.0" y="703.5"/>
      <point x="303.5" y="675.0" type="curve" smooth="yes"/>
    </contour>
    <contour>
      <point x="194.5" y="569.0" type="curve"/>
      <point x="240.5" y="655.0" type="line"/>
      <point x="193.0" y="657.0"/>
      <point x="157.5" y="690.0"/>
      <point x="157.5" y="738.5" type="curve" smooth="yes"/>
      <point x="157.5" y="773.0"/>
      <point x="179.5" y="802.5"/>
      <point x="212.0" y="814.5" type="curve"/>
      <point x="212.0" y="913.0" type="line"/>
      <point x="120.5" y="899.5"/>
      <point x="51.5" y="828.0"/>
      <point x="51.5" y="737.0" type="curve" smooth="yes"/>
      <point x="51.5" y="650.0"/>
      <point x="114.0" y="583.0"/>
    </contour>
  </outline>
</glyph>
<glyph name="ogonekcomb.i" format="2">
  <anchor x="403.0" y="0.0" name="_ogonek"/>
  <outline>
    <contour>
      <point x="458.0" y="-312.0" type="curve"/>
      <point x="480.0" y="-219.0" type="line"/>
      <point x="429.0" y="-219.0"/>
      <point x="393.0" y="-195.0"/>
      <point x="393.0" y="-134.0" type="curve" smooth="yes"/>
      <point x="393.0" y="-104.0"/>
      <point x="401.5" y="-79.0"/>
      <point x="416.0" y="-54.0" type="curve"/>
      <point x="317.0" y="-54.0" type="line"/>
      <point x="302.0" y="-86.0"/>
      <point x="293.0" y="-119.0"/>
      <point x="293.0" y="-153.0" type="curve" smooth="yes"/>
      <point x="293.0" y="-254.0"/>
      <point x="371.0" y="-312.0"/>
    </contour>
  </outline>
</glyph>
<glyph name="one.lf" format="2">
  <advance width="480.0"/>
  <outline>
    <contour>
      <point x="210.0" y="0.0" type="line"/>
      <point x="354.0" y="0.0" type="line"/>
      <point x="354.0" y="726.0" type="line"/>
      <point x="210.0" y="653.5" type="line"/>
    </contour>
    <contour>
      <point x="66.0" y="643.0" type="line"/>
      <point x="354.0" y="788.5" type="line"/>
      <point x="354.0" y="926.0" type="line"/>
      <point x="66.0" y="782.0" type="line"/>
    </contour>
  </outline>
</glyph>
<glyph name="parenleft.titl" format="2">
  <advance width="480.0"/>
  <outline>
    <contour>
      <point x="290.0" y="-180.0" type="curve"/>
      <point x="369.0" y="-180.0" type="line"/>
      <point x="259.5" y="-19.0"/>
      <point x="198.5" y="176.0"/>
      <point x="198.5" y="390.0" type="curve" smooth="yes"/>
      <point x="198.5" y="604.0"/>
      <point x="259.5" y="799.0"/>
      <point x="369.0" y="960.0" type="curve"/>
      <point x="290.0" y="960.0" type="line"/>
      <point x="189.0" y="793.0"/>
      <point x="130.0" y="598.0"/>
      <point x="130.0" y="390.0" type="curve" smooth="yes"/>
      <point x="130.0" y="182.0"/>
      <point x="189.0" y="-13.0"/>
    </contour>
  </outline>
</glyph>
<glyph name="plus.titl" format="2">
  <advance width="750.0"/>
  <outline>
    <contour>
      <point x="341.0" y="135.0" type="line"/>
      <point x="409.0" y="135.0" type="line"/>
      <point x="409.0" y="765.0" type="line"/>
      <point x="341.0" y="765.0" type="line"/>
    </contour>
    <contour>
      <point x="60.0" y="417.5" type="line"/>
      <point x="690.0" y="417.5" type="line"/>
      <point x="690.0" y="482.5" type="line"/>
      <point x="60.0" y="482.5" type="line"/>
    </contour>
  </outline>
</glyph>
<glyph name="ringcomb_acutecomb" format="2">
  <anchor x="360.0" y="600.0" name="_top"/>
  <outline>
    <contour>
      <point x="311.0" y="963.0" type="line"/>
      <point x="416.0" y="963.0" type="line"/>
      <point x="501.0" y="1086.0" type="line"/>
      <point x="370.0" y="1086.0" type="line"/>
    </contour>
    <contour>
      <point x="387.0" y="650.5" type="line"/>
      <point x="454.0" y="662.0"/>
      <point x="501.0" y="713.5"/>
      <point x="501.0" y="780.0" type="curve" smooth="yes"/>
      <point x="501.0" y="845.5"/>
      <point x="450.5" y="897.0"/>
      <point x="387.0" y="909.0" type="curve"/>
      <point x="387.0" y="832.0" type="line"/>
      <point x="410.0" y="822.0"/>
      <point x="424.5" y="802.5"/>
      <point x="424.5" y="780.0" type="curve" smooth="yes"/>
      <point x="424.5" y="757.5"/>
      <point x="410.5" y="737.5"/>
      <point x="387.0" y="728.0" type="curve"/>
    </contour>
    <contour>
      <point x="333.0" y="651.0" type="curve"/>
      <point x="333.0" y="728.0" type="line"/>
      <point x="309.0" y="737.5"/>
      <point x="295.5" y="757.5"/>
      <point x="295.5" y="780.0" type="curve" smooth="yes"/>
      <point x="295.5" y="802.5"/>
      <point x="309.0" y="822.5"/>
      <point x="333.0" y="832.0" type="curve"/>
      <point x="333.0" y="909.0" type="line"/>
      <point x="266.5" y="897.0"/>
      <point x="219.0" y="845.5"/>
      <point x="219.0" y="780.0" type="curve" smooth="yes"/>
      <point x="219.0" y="714.5"/>
      <point x="266.5" y="663.0"/>
    </contour>
  </outline>
</glyph>
<glyph name="seven.numr" format="2">
  <advance width="480.0"/>
  <outline>
    <contour>
      <point x="87.0" y="420.0" type="line"/>
      <point x="207.0" y="420.0" type="line"/>
      <point x="444.0" y="900.0" type="line"/>
      <point x="326.0" y="900.0" type="line"/>
    </contour>
    <contour>
      <point x="77.0" y="800.0" type="line"/>
      <point x="216.0" y="800.0" type="line"/>
      <point x="266.0" y="900.0" type="line"/>
      <point x="77.0" y="900.0" type="line"/>
    </contour>
  </outline>
</glyph>
<glyph name="slashlongcomb.case" format="2">
  <anchor x="400.0" y="457.0" name="_center"/>
  <outline>
    <contour>
      <point x="75.5" y="-21.5" type="line"/>
      <point x="804.5" y="855.5" type="line"/>
      <point x="724.5" y="921.5" type="line"/>
      <point x="-4.5" y="44.5" type="line"/>
    </contour>
  </outline>
</glyph>
<glyph name="slashshortcomb.case" format="2">
  <anchor x="213.0" y="300.0" name="_center"/>
  <outline>
    <contour>
      <point x="64.0" y="159.0" type="line"/>
      <point x="525.0" y="437.0" type="line"/>
      <point x="476.0" y="519.0" type="line"/>
      <point x="15.0" y="241.0" type="line"/>
    </contour>
  </outline>
</glyph>
<glyph name="three.numr" format="2">
  <advance width="480.0"/>
  <outline>
    <contour>
      <point x="241.5" y="407.0" type="line"/>
      <point x="338.5" y="419.0"/>
      <point x="408.0" y="491.0"/>
      <point x="408.0" y="584.0" type="curve" smooth="yes"/>
      <point x="408.0" y="666.0"/>
      <point x="351.5" y="733.0"/>
      <point x="270.0" y="749.0" type="curve"/>
      <point x="271.0" y="695.5" type="line"/>
      <point x="385.5" y="900.0" type="line"/>
      <point x="276.0" y="900.0" type="line"/>
      <point x="142.0" y="650.0" type="line"/>
      <point x="161.5" y="660.0"/>
      <point x="184.0" y="668.0"/>
      <point x="211.0" y="668.0" type="curve" smooth="yes"/>
      <point x="267.5" y="668.0"/>
      <point x="299.0" y="630.5"/>
      <point x="299.0" y="586.5" type="curve" smooth="yes"/>
      <point x="299.0" y="549.5"/>
      <point x="277.0" y="520.5"/>
      <point x="241.5" y="510.0" type="curve"/>
    </contour>
    <contour>
      <point x="185.5" y="407.0" type="curve"/>
      <point x="185.5" y="508.5" type="line"/>
      <point x="143.0" y="518.0"/>
      <point x="116.5" y="549.0"/>
      <point x="108.5" y="586.0" type="curve"/>
      <point x="52.0" y="481.5" type="line"/>
      <point x="80.0" y="443.5"/>
      <point x="127.5" y="414.5"/>
    </contour>
    <contour>
      <point x="75.5" y="803.0" type="line"/>
      <point x="166.0" y="803.0" type="line"/>
      <point x="218.0" y="900.0" type="line"/>
      <point x="75.5" y="900.0" type="line"/>
    </contour>
  </outline>
</glyph>
<glyph name="tildecomb.case" format="2">
  <anchor x="360.0" y="900.0" name="_top"/>
  <outline>
    <contour>
      <point x="161.5" y="992.0" type="line"/>
      <point x="183.0" y="1038.0"/>
      <point x="215.5" y="1065.0"/>
      <point x="257.5" y="1065.0" type="curve" smooth="yes"/>
      <point x="323.0" y="1065.0"/>
      <point x="384.0" y="995.0"/>
      <point x="461.5" y="995.0" type="curve" smooth="yes"/>
      <point x="512.5" y="995.0"/>
      <point x="558.0" y="1023.0"/>
      <point x="586.5" y="1074.5" type="curve"/>
      <point x="558.0" y="1183.0" type="line"/>
      <point x="536.5" y="1137.0"/>
      <point x="504.5" y="1110.0"/>
      <point x="462.5" y="1110.0" type="curve" smooth="yes"/>
      <point x="397.0" y="1110.0"/>
      <point x="336.0" y="1180.0"/>
      <point x="258.5" y="1180.0" type="curve" smooth="yes"/>
      <point x="207.5" y="1180.0"/>
      <point x="162.0" y="1152.0"/>
      <point x="133.5" y="1100.5" type="curve"/>
    </contour>
  </outline>
</glyph>
<glyph name="two.numr" format="2">
  <advance width="480.0"/>
  <outline>
    <contour>
      <point x="57.5" y="420.0" type="line"/>
      <point x="177.0" y="420.0" type="line"/>
      <point x="341.0" y="623.0" type="line"/>
      <point x="382.5" y="674.0"/>
      <point x="400.0" y="711.5"/>
      <point x="400.0" y="753.0" type="curve" smooth="yes"/>
      <point x="400.0" y="833.5"/>
      <point x="340.0" y="900.0"/>
      <point x="256.0" y="913.0" type="curve"/>
      <point x="256.0" y="808.5" type="line"/>
      <point x="278.0" y="798.0"/>
      <point x="291.0" y="777.0"/>
      <point x="291.0" y="751.5" type="curve" smooth="yes"/>
      <point x="291.0" y="730.0"/>
      <point x="284.0" y="710.5"/>
      <point x="257.0" y="675.5" type="curve" smooth="yes"/>
    </contour>
    <contour>
      <point x="239.5" y="420.0" type="line"/>
      <point x="424.5" y="420.0" type="line"/>
      <point x="424.5" y="517.0" type="line"/>
      <point x="318.0" y="517.0" type="line"/>
    </contour>
    <contour>
      <point x="67.0" y="696.0" type="curve"/>
      <point x="182.0" y="696.0" type="line"/>
      <point x="168.5" y="713.5"/>
      <point x="162.5" y="730.0"/>
      <point x="162.5" y="749.0" type="curve" smooth="yes"/>
      <point x="162.5" y="777.5"/>
      <point x="176.0" y="799.0"/>
      <point x="200.0" y="809.0" type="curve"/>
      <point x="200.0" y="913.0" type="line"/>
      <point x="115.0" y="900.0"/>
      <point x="55.5" y="835.5"/>
      <point x="55.5" y="752.5" type="curve" smooth="yes"/>
      <point x="55.5" y="730.5"/>
      <point x="59.5" y="714.5"/>
    </contour>
  </outline>
</glyph>
<glyph name="zero.numr" format="2">
  <advance width="480.0"/>
  <outline>
    <contour>
      <point x="268.0" y="410.0" type="line"/>
      <point x="383.0" y="427.0"/>
      <point x="438.0" y="543.5"/>
      <point x="438.0" y="660.0" type="curve" smooth="yes"/>
      <point x="438.0" y="777.0"/>
      <point x="383.5" y="893.0"/>
      <point x="268.0" y="910.0" type="curve"/>
      <point x="268.0" y="805.0" type="line"/>
      <point x="311.0" y="784.5"/>
      <point x="327.0" y="721.5"/>
      <point x="327.0" y="660.0" type="curve" smooth="yes"/>
      <point x="327.0" y="598.5"/>
      <point x="310.5" y="535.0"/>
      <point x="268.0" y="515.0" type="curve"/>
    </contour>
    <contour>
      <point x="212.0" y="410.0" type="curve"/>
      <point x="212.0" y="515.5" type="line"/>
      <point x="169.0" y="535.5"/>
      <point x="153.0" y="598.5"/>
      <point x="153.0" y="660.0" type="curve" smooth="yes"/>
      <point x="153.0" y="721.5"/>
      <point x="169.5" y="784.5"/>
      <point x="212.0" y="804.5" type="curve"/>
      <point x="212.0" y="910.0" type="line"/>
      <point x="97.0" y="892.0"/>
      <point x="42.0" y="777.0"/>
      <point x="42.0" y="660.0" type="curve" smooth="yes"/>
      <point x="42.0" y="543.5"/>
      <point x="97.0" y="428.0"/>
    </contour>
  </outline>
</glyph>
<glyph name="zero.osf" format="2">
  <advance width="900.0"/>
  <outline>
    <contour>
      <point x="450.0" y="-12.0" type="curve" smooth="yes"/>
      <point x="659.0" y="-12.0"/>
      <point x="828.0" y="151.0"/>
      <point x="828.0" y="360.0" type="curve" smooth="yes"/>
      <point x="828.0" y="569.0"/>
      <point x="659.0" y="732.0"/>
      <point x="450.0" y="732.0" type="curve" smooth="yes"/>
      <point x="241.0" y="732.0"/>
      <point x="72.0" y="569.0"/>
      <point x="72.0" y="360.0" type="curve" smooth="yes"/>
      <point x="72.0" y="151.0"/>
      <point x="241.0" y="-12.0"/>
    </contour>
    <contour>
      <point x="450.0" y="94.0" type="curve" smooth="yes"/>
      <point x="302.0" y="94.0"/>
      <point x="184.0" y="212.0"/>
      <point x="184.0" y="360.0" type="curve" smooth="yes"/>
      <point x="184.0" y="508.0"/>
      <point x="302.0" y="626.0"/>
      <point x="450.0" y="626.0" type="curve" smooth="yes"/>
      <point x="598.0" y="626.0"/>
      <point x="716.0" y="508.0"/>
      <point x="716.0" y="360.0" type="curve" smooth="yes"/>
      <point x="716.0" y="212.0"/>
      <point x="598.0" y="94.0"/>
    </contour>
  </outline>
</glyph>
